# MagicaVoxel @ Ephtracy

# material
mtllib Fuel.mtl
usemtl palette

# normals
vn -1 0 0
vn 1 0 0
vn 0 0 1
vn 0 0 -1
vn 0 -1 0
vn 0 1 0

# texcoords
vt 0.841797 0.5
vt 0.994141 0.5

# verts
v -20 0 20
v -20 0 7
v -20 1 20
v -20 1 7
v -20 4 19
v -20 4 18
v -20 4 10
v -20 4 9
v -20 5 19
v -20 5 18
v -20 5 17
v -20 5 11
v -20 5 10
v -20 5 9
v -20 6 18
v -20 6 17
v -20 6 16
v -20 6 12
v -20 6 11
v -20 6 10
v -20 7 17
v -20 7 16
v -20 7 15
v -20 7 13
v -20 7 12
v -20 7 11
v -20 8 16
v -20 8 15
v -20 8 13
v -20 8 12
v -20 10 16
v -20 10 15
v -20 10 13
v -20 10 12
v -20 11 17
v -20 11 16
v -20 11 15
v -20 11 13
v -20 11 12
v -20 11 11
v -20 12 18
v -20 12 17
v -20 12 16
v -20 12 12
v -20 12 11
v -20 12 10
v -20 13 19
v -20 13 18
v -20 13 17
v -20 13 11
v -20 13 10
v -20 13 9
v -20 14 19
v -20 14 18
v -20 14 10
v -20 14 9
v -20 16 20
v -20 16 7
v -19 16 20
v -19 16 19
v -19 16 10
v -19 16 9
v -19 17 19
v -19 17 10
v -19 17 9
v -19 18 20
v -19 18 19
v -19 18 10
v -18 15 7
v -18 15 6
v -18 16 8
v -18 16 7
v -18 16 6
v -18 17 8
v -18 17 6
v -18 18 8
v -18 18 6
v -16 16 20
v -16 16 19
v -16 16 10
v -16 16 9
v -16 17 19
v -16 17 10
v -16 17 9
v -16 18 20
v -16 18 19
v -16 18 10
v -18 16 20
v -18 16 19
v -18 16 10
v -18 16 9
v -18 17 19
v -18 17 10
v -18 17 9
v -18 18 20
v -18 18 19
v -18 18 10
v -16 15 7
v -16 15 6
v -16 16 8
v -16 16 7
v -16 16 6
v -16 17 8
v -16 17 6
v -16 18 8
v -16 18 6
v -15 16 20
v -15 16 19
v -15 16 10
v -15 16 9
v -15 17 19
v -15 17 10
v -15 17 9
v -15 18 20
v -15 18 19
v -15 18 10
v -14 0 20
v -14 0 7
v -14 1 20
v -14 1 7
v -14 4 19
v -14 4 18
v -14 4 10
v -14 4 9
v -14 5 19
v -14 5 18
v -14 5 17
v -14 5 11
v -14 5 10
v -14 5 9
v -14 6 18
v -14 6 17
v -14 6 16
v -14 6 12
v -14 6 11
v -14 6 10
v -14 7 17
v -14 7 16
v -14 7 15
v -14 7 13
v -14 7 12
v -14 7 11
v -14 8 16
v -14 8 15
v -14 8 13
v -14 8 12
v -14 10 16
v -14 10 15
v -14 10 13
v -14 10 12
v -14 11 17
v -14 11 16
v -14 11 15
v -14 11 13
v -14 11 12
v -14 11 11
v -14 12 18
v -14 12 17
v -14 12 16
v -14 12 12
v -14 12 11
v -14 12 10
v -14 13 19
v -14 13 18
v -14 13 17
v -14 13 11
v -14 13 10
v -14 13 9
v -14 14 19
v -14 14 18
v -14 14 10
v -14 14 9
v -14 16 20
v -14 16 7
v -20 0 20
v -20 1 20
v -20 16 20
v -19 16 20
v -19 18 20
v -18 16 20
v -18 18 20
v -16 16 20
v -16 18 20
v -15 16 20
v -15 18 20
v -14 0 20
v -14 1 20
v -14 16 20
v -19 16 10
v -19 17 10
v -18 16 10
v -18 17 10
v -16 16 10
v -16 17 10
v -15 16 10
v -15 17 10
v -18 16 8
v -18 17 8
v -18 18 8
v -16 16 8
v -16 17 8
v -16 18 8
v -19 16 19
v -19 17 19
v -18 16 19
v -18 17 19
v -16 16 19
v -16 17 19
v -15 16 19
v -15 17 19
v -19 17 10
v -19 18 10
v -18 17 10
v -18 18 10
v -16 17 10
v -16 18 10
v -15 17 10
v -15 18 10
v -19 16 9
v -19 17 9
v -18 16 9
v -18 17 9
v -16 16 9
v -16 17 9
v -15 16 9
v -15 17 9
v -20 0 7
v -20 1 7
v -20 16 7
v -19 1 7
v -19 16 7
v -18 1 7
v -18 15 7
v -18 16 7
v -16 1 7
v -16 15 7
v -16 16 7
v -15 1 7
v -15 16 7
v -14 0 7
v -14 1 7
v -14 16 7
v -18 15 6
v -18 16 6
v -18 17 6
v -18 18 6
v -16 15 6
v -16 16 6
v -16 17 6
v -16 18 6
v -20 0 20
v -14 0 20
v -19 0 19
v -15 0 19
v -19 0 8
v -15 0 8
v -20 0 7
v -14 0 7
v -18 15 7
v -16 15 7
v -18 15 6
v -16 15 6
v -19 17 19
v -18 17 19
v -16 17 19
v -15 17 19
v -19 17 10
v -18 17 10
v -16 17 10
v -15 17 10
v -20 16 20
v -19 16 20
v -18 16 20
v -16 16 20
v -15 16 20
v -14 16 20
v -19 16 19
v -18 16 19
v -16 16 19
v -15 16 19
v -19 16 10
v -18 16 10
v -16 16 10
v -15 16 10
v -19 16 9
v -18 16 9
v -16 16 9
v -15 16 9
v -18 16 8
v -16 16 8
v -20 16 7
v -19 16 7
v -18 16 7
v -16 16 7
v -15 16 7
v -14 16 7
v -19 17 10
v -18 17 10
v -16 17 10
v -15 17 10
v -19 17 9
v -18 17 9
v -16 17 9
v -15 17 9
v -19 18 20
v -18 18 20
v -16 18 20
v -15 18 20
v -19 18 19
v -18 18 19
v -16 18 19
v -15 18 19
v -19 18 10
v -18 18 10
v -16 18 10
v -15 18 10
v -18 18 8
v -16 18 8
v -18 18 6
v -16 18 6

# faces
f 3/2/1 2/2/1 1/2/1
f 4/2/1 2/2/1 3/2/1
f 5/1/1 4/1/1 3/1/1
f 6/1/1 4/1/1 5/1/1
f 7/1/1 4/1/1 6/1/1
f 8/1/1 4/1/1 7/1/1
f 9/1/1 5/1/1 3/1/1
f 9/2/1 6/2/1 5/2/1
f 10/1/1 7/1/1 6/1/1
f 10/2/1 6/2/1 9/2/1
f 11/1/1 7/1/1 10/1/1
f 12/1/1 7/1/1 11/1/1
f 13/2/1 8/2/1 7/2/1
f 13/1/1 7/1/1 12/1/1
f 14/1/1 4/1/1 8/1/1
f 14/2/1 8/2/1 13/2/1
f 15/1/1 10/1/1 9/1/1
f 15/2/1 11/2/1 10/2/1
f 16/1/1 12/1/1 11/1/1
f 16/2/1 11/2/1 15/2/1
f 17/1/1 12/1/1 16/1/1
f 18/1/1 12/1/1 17/1/1
f 19/2/1 13/2/1 12/2/1
f 19/1/1 12/1/1 18/1/1
f 20/1/1 14/1/1 13/1/1
f 20/2/1 13/2/1 19/2/1
f 21/1/1 16/1/1 15/1/1
f 21/2/1 17/2/1 16/2/1
f 22/1/1 18/1/1 17/1/1
f 22/2/1 17/2/1 21/2/1
f 23/1/1 18/1/1 22/1/1
f 24/1/1 18/1/1 23/1/1
f 25/2/1 19/2/1 18/2/1
f 25/1/1 18/1/1 24/1/1
f 26/1/1 20/1/1 19/1/1
f 26/2/1 19/2/1 25/2/1
f 27/1/1 22/1/1 21/1/1
f 27/2/1 23/2/1 22/2/1
f 28/1/1 24/1/1 23/1/1
f 28/2/1 23/2/1 27/2/1
f 29/2/1 25/2/1 24/2/1
f 29/1/1 24/1/1 28/1/1
f 30/1/1 26/1/1 25/1/1
f 30/2/1 25/2/1 29/2/1
f 31/1/1 27/1/1 21/1/1
f 31/1/1 28/1/1 27/1/1
f 32/2/1 29/2/1 28/2/1
f 32/1/1 28/1/1 31/1/1
f 33/1/1 30/1/1 29/1/1
f 33/2/1 29/2/1 32/2/1
f 34/1/1 26/1/1 30/1/1
f 34/1/1 30/1/1 33/1/1
f 35/1/1 21/1/1 15/1/1
f 35/1/1 31/1/1 21/1/1
f 36/2/1 32/2/1 31/2/1
f 36/1/1 31/1/1 35/1/1
f 37/1/1 33/1/1 32/1/1
f 37/2/1 32/2/1 36/2/1
f 38/2/1 34/2/1 33/2/1
f 38/1/1 33/1/1 37/1/1
f 39/1/1 26/1/1 34/1/1
f 39/2/1 34/2/1 38/2/1
f 40/1/1 20/1/1 26/1/1
f 40/1/1 26/1/1 39/1/1
f 41/1/1 15/1/1 9/1/1
f 41/1/1 35/1/1 15/1/1
f 42/2/1 36/2/1 35/2/1
f 42/1/1 35/1/1 41/1/1
f 43/1/1 38/1/1 37/1/1
f 43/2/1 36/2/1 42/2/1
f 43/1/1 39/1/1 38/1/1
f 43/1/1 37/1/1 36/1/1
f 44/2/1 40/2/1 39/2/1
f 44/1/1 39/1/1 43/1/1
f 45/1/1 20/1/1 40/1/1
f 45/2/1 40/2/1 44/2/1
f 46/1/1 14/1/1 20/1/1
f 46/1/1 20/1/1 45/1/1
f 47/1/1 9/1/1 3/1/1
f 47/1/1 41/1/1 9/1/1
f 48/2/1 42/2/1 41/2/1
f 48/1/1 41/1/1 47/1/1
f 49/1/1 44/1/1 43/1/1
f 49/2/1 42/2/1 48/2/1
f 49/1/1 45/1/1 44/1/1
f 49/1/1 43/1/1 42/1/1
f 50/2/1 46/2/1 45/2/1
f 50/1/1 45/1/1 49/1/1
f 51/1/1 14/1/1 46/1/1
f 51/2/1 46/2/1 50/2/1
f 52/1/1 4/1/1 14/1/1
f 52/1/1 14/1/1 51/1/1
f 53/1/1 47/1/1 3/1/1
f 53/2/1 48/2/1 47/2/1
f 54/1/1 50/1/1 49/1/1
f 54/2/1 48/2/1 53/2/1
f 54/1/1 51/1/1 50/1/1
f 54/1/1 49/1/1 48/1/1
f 55/2/1 52/2/1 51/2/1
f 55/1/1 51/1/1 54/1/1
f 56/1/1 4/1/1 52/1/1
f 56/2/1 52/2/1 55/2/1
f 57/1/1 55/1/1 54/1/1
f 57/1/1 54/1/1 53/1/1
f 57/1/1 56/1/1 55/1/1
f 57/1/1 53/1/1 3/1/1
f 58/1/1 4/1/1 56/1/1
f 58/1/1 56/1/1 57/1/1
f 63/2/1 60/2/1 59/2/1
f 64/2/1 62/2/1 61/2/1
f 65/2/1 62/2/1 64/2/1
f 66/2/1 63/2/1 59/2/1
f 67/1/1 64/1/1 63/1/1
f 67/2/1 63/2/1 66/2/1
f 68/1/1 64/1/1 67/1/1
f 72/2/1 70/2/1 69/2/1
f 73/2/1 70/2/1 72/2/1
f 74/1/1 72/1/1 71/1/1
f 74/1/1 73/1/1 72/1/1
f 75/1/1 73/1/1 74/1/1
f 76/2/1 75/2/1 74/2/1
f 77/2/1 75/2/1 76/2/1
f 82/2/1 79/2/1 78/2/1
f 83/2/1 81/2/1 80/2/1
f 84/2/1 81/2/1 83/2/1
f 85/2/1 82/2/1 78/2/1
f 86/1/1 83/1/1 82/1/1
f 86/2/1 82/2/1 85/2/1
f 87/1/1 83/1/1 86/1/1
f 88/2/2 89/2/2 92/2/2
f 90/2/2 91/2/2 93/2/2
f 93/2/2 91/2/2 94/2/2
f 88/2/2 92/2/2 95/2/2
f 92/1/2 93/1/2 96/1/2
f 95/2/2 92/2/2 96/2/2
f 96/1/2 93/1/2 97/1/2
f 98/2/2 99/2/2 101/2/2
f 101/2/2 99/2/2 102/2/2
f 100/1/2 101/1/2 103/1/2
f 101/1/2 102/1/2 103/1/2
f 103/1/2 102/1/2 104/1/2
f 103/2/2 104/2/2 105/2/2
f 105/2/2 104/2/2 106/2/2
f 107/2/2 108/2/2 111/2/2
f 109/2/2 110/2/2 112/2/2
f 112/2/2 110/2/2 113/2/2
f 107/2/2 111/2/2 114/2/2
f 111/1/2 112/1/2 115/1/2
f 114/2/2 111/2/2 115/2/2
f 115/1/2 112/1/2 116/1/2
f 117/2/2 118/2/2 119/2/2
f 119/2/2 118/2/2 120/2/2
f 119/1/2 120/1/2 121/1/2
f 121/1/2 120/1/2 122/1/2
f 122/1/2 120/1/2 123/1/2
f 123/1/2 120/1/2 124/1/2
f 119/1/2 121/1/2 125/1/2
f 121/2/2 122/2/2 125/2/2
f 122/1/2 123/1/2 126/1/2
f 125/2/2 122/2/2 126/2/2
f 126/1/2 123/1/2 127/1/2
f 127/1/2 123/1/2 128/1/2
f 123/2/2 124/2/2 129/2/2
f 128/1/2 123/1/2 129/1/2
f 124/1/2 120/1/2 130/1/2
f 129/2/2 124/2/2 130/2/2
f 125/1/2 126/1/2 131/1/2
f 126/2/2 127/2/2 131/2/2
f 127/1/2 128/1/2 132/1/2
f 131/2/2 127/2/2 132/2/2
f 132/1/2 128/1/2 133/1/2
f 133/1/2 128/1/2 134/1/2
f 128/2/2 129/2/2 135/2/2
f 134/1/2 128/1/2 135/1/2
f 129/1/2 130/1/2 136/1/2
f 135/2/2 129/2/2 136/2/2
f 131/1/2 132/1/2 137/1/2
f 132/2/2 133/2/2 137/2/2
f 133/1/2 134/1/2 138/1/2
f 137/2/2 133/2/2 138/2/2
f 138/1/2 134/1/2 139/1/2
f 139/1/2 134/1/2 140/1/2
f 134/2/2 135/2/2 141/2/2
f 140/1/2 134/1/2 141/1/2
f 135/1/2 136/1/2 142/1/2
f 141/2/2 135/2/2 142/2/2
f 137/1/2 138/1/2 143/1/2
f 138/2/2 139/2/2 143/2/2
f 139/1/2 140/1/2 144/1/2
f 143/2/2 139/2/2 144/2/2
f 140/2/2 141/2/2 145/2/2
f 144/1/2 140/1/2 145/1/2
f 141/1/2 142/1/2 146/1/2
f 145/2/2 141/2/2 146/2/2
f 137/1/2 143/1/2 147/1/2
f 143/1/2 144/1/2 147/1/2
f 144/2/2 145/2/2 148/2/2
f 147/1/2 144/1/2 148/1/2
f 145/1/2 146/1/2 149/1/2
f 148/2/2 145/2/2 149/2/2
f 146/1/2 142/1/2 150/1/2
f 149/1/2 146/1/2 150/1/2
f 131/1/2 137/1/2 151/1/2
f 137/1/2 147/1/2 151/1/2
f 147/2/2 148/2/2 152/2/2
f 151/1/2 147/1/2 152/1/2
f 148/1/2 149/1/2 153/1/2
f 152/2/2 148/2/2 153/2/2
f 149/2/2 150/2/2 154/2/2
f 153/1/2 149/1/2 154/1/2
f 150/1/2 142/1/2 155/1/2
f 154/2/2 150/2/2 155/2/2
f 142/1/2 136/1/2 156/1/2
f 155/1/2 142/1/2 156/1/2
f 125/1/2 131/1/2 157/1/2
f 131/1/2 151/1/2 157/1/2
f 151/2/2 152/2/2 158/2/2
f 157/1/2 151/1/2 158/1/2
f 153/1/2 154/1/2 159/1/2
f 158/2/2 152/2/2 159/2/2
f 154/1/2 155/1/2 159/1/2
f 152/1/2 153/1/2 159/1/2
f 155/2/2 156/2/2 160/2/2
f 159/1/2 155/1/2 160/1/2
f 156/1/2 136/1/2 161/1/2
f 160/2/2 156/2/2 161/2/2
f 136/1/2 130/1/2 162/1/2
f 161/1/2 136/1/2 162/1/2
f 119/1/2 125/1/2 163/1/2
f 125/1/2 157/1/2 163/1/2
f 157/2/2 158/2/2 164/2/2
f 163/1/2 157/1/2 164/1/2
f 159/1/2 160/1/2 165/1/2
f 164/2/2 158/2/2 165/2/2
f 160/1/2 161/1/2 165/1/2
f 158/1/2 159/1/2 165/1/2
f 161/2/2 162/2/2 166/2/2
f 165/1/2 161/1/2 166/1/2
f 162/1/2 130/1/2 167/1/2
f 166/2/2 162/2/2 167/2/2
f 130/1/2 120/1/2 168/1/2
f 167/1/2 130/1/2 168/1/2
f 119/1/2 163/1/2 169/1/2
f 163/2/2 164/2/2 169/2/2
f 165/1/2 166/1/2 170/1/2
f 169/2/2 164/2/2 170/2/2
f 166/1/2 167/1/2 170/1/2
f 164/1/2 165/1/2 170/1/2
f 167/2/2 168/2/2 171/2/2
f 170/1/2 167/1/2 171/1/2
f 168/1/2 120/1/2 172/1/2
f 171/2/2 168/2/2 172/2/2
f 170/1/2 171/1/2 173/1/2
f 169/1/2 170/1/2 173/1/2
f 171/1/2 172/1/2 173/1/2
f 119/1/2 169/1/2 173/1/2
f 172/1/2 120/1/2 174/1/2
f 173/1/2 172/1/2 174/1/2
f 178/1/3 177/1/3 176/1/3
f 180/1/3 178/1/3 176/1/3
f 180/2/3 179/2/3 178/2/3
f 181/2/3 179/2/3 180/2/3
f 182/1/3 180/1/3 176/1/3
f 184/1/3 182/1/3 176/1/3
f 184/2/3 183/2/3 182/2/3
f 185/2/3 183/2/3 184/2/3
f 186/2/3 176/2/3 175/2/3
f 187/1/3 184/1/3 176/1/3
f 187/2/3 176/2/3 186/2/3
f 188/1/3 184/1/3 187/1/3
f 191/2/3 190/2/3 189/2/3
f 192/2/3 190/2/3 191/2/3
f 195/2/3 194/2/3 193/2/3
f 196/2/3 194/2/3 195/2/3
f 200/1/3 198/1/3 197/1/3
f 201/2/3 199/2/3 198/2/3
f 201/1/3 198/1/3 200/1/3
f 202/2/3 199/2/3 201/2/3
f 203/2/4 204/2/4 205/2/4
f 205/2/4 204/2/4 206/2/4
f 207/2/4 208/2/4 209/2/4
f 209/2/4 208/2/4 210/2/4
f 211/1/4 212/1/4 213/1/4
f 213/1/4 212/1/4 214/1/4
f 215/1/4 216/1/4 217/1/4
f 217/1/4 216/1/4 218/1/4
f 219/2/4 220/2/4 221/2/4
f 221/2/4 220/2/4 222/2/4
f 223/2/4 224/2/4 225/2/4
f 225/2/4 224/2/4 226/2/4
f 227/2/4 228/2/4 230/2/4
f 228/1/4 229/1/4 230/1/4
f 230/1/4 229/1/4 231/1/4
f 227/2/4 230/2/4 232/2/4
f 230/2/4 231/2/4 232/2/4
f 232/2/4 231/2/4 233/2/4
f 233/2/4 231/2/4 234/2/4
f 227/2/4 232/2/4 235/2/4
f 232/1/4 233/1/4 235/1/4
f 235/1/4 233/1/4 236/1/4
f 227/2/4 235/2/4 238/2/4
f 236/2/4 237/2/4 238/2/4
f 235/2/4 236/2/4 238/2/4
f 238/2/4 237/2/4 239/2/4
f 227/2/4 238/2/4 240/2/4
f 238/1/4 239/1/4 241/1/4
f 240/2/4 238/2/4 241/2/4
f 241/1/4 239/1/4 242/1/4
f 243/2/4 244/2/4 247/2/4
f 244/1/4 245/1/4 248/1/4
f 247/2/4 244/2/4 248/2/4
f 245/2/4 246/2/4 249/2/4
f 248/1/4 245/1/4 249/1/4
f 249/2/4 246/2/4 250/2/4
f 253/2/5 252/2/5 251/2/5
f 254/2/5 252/2/5 253/2/5
f 255/2/5 253/2/5 251/2/5
f 255/1/5 254/1/5 253/1/5
f 256/2/5 252/2/5 254/2/5
f 256/1/5 254/1/5 255/1/5
f 257/2/5 255/2/5 251/2/5
f 257/2/5 256/2/5 255/2/5
f 258/2/5 252/2/5 256/2/5
f 258/2/5 256/2/5 257/2/5
f 261/2/5 260/2/5 259/2/5
f 262/2/5 260/2/5 261/2/5
f 267/1/5 264/1/5 263/1/5
f 268/1/5 264/1/5 267/1/5
f 269/1/5 266/1/5 265/1/5
f 270/1/5 266/1/5 269/1/5
f 271/1/6 272/1/6 277/1/6
f 273/1/6 274/1/6 278/1/6
f 278/1/6 274/1/6 279/1/6
f 275/1/6 276/1/6 280/1/6
f 278/1/6 279/1/6 281/1/6
f 279/1/6 280/1/6 281/1/6
f 271/1/6 277/1/6 281/1/6
f 277/1/6 278/1/6 281/1/6
f 281/1/6 280/1/6 282/1/6
f 282/1/6 280/1/6 283/1/6
f 280/1/6 276/1/6 284/1/6
f 283/1/6 280/1/6 284/1/6
f 271/1/6 281/1/6 285/1/6
f 282/1/6 283/1/6 286/1/6
f 286/1/6 283/1/6 287/1/6
f 284/1/6 276/1/6 288/1/6
f 286/1/6 287/1/6 289/1/6
f 285/2/6 286/2/6 289/2/6
f 287/2/6 288/2/6 290/2/6
f 289/1/6 287/1/6 290/1/6
f 271/1/6 285/1/6 291/1/6
f 285/2/6 289/2/6 292/2/6
f 291/1/6 285/1/6 292/1/6
f 292/2/6 289/2/6 293/2/6
f 290/2/6 288/2/6 294/2/6
f 288/1/6 276/1/6 295/1/6
f 294/2/6 288/2/6 295/2/6
f 295/1/6 276/1/6 296/1/6
f 297/2/6 298/2/6 301/2/6
f 301/2/6 298/2/6 302/2/6
f 299/2/6 300/2/6 303/2/6
f 303/2/6 300/2/6 304/2/6
f 305/2/6 306/2/6 309/2/6
f 309/2/6 306/2/6 310/2/6
f 307/2/6 308/2/6 311/2/6
f 311/2/6 308/2/6 312/2/6
f 309/1/6 310/1/6 313/1/6
f 313/1/6 310/1/6 314/1/6
f 311/1/6 312/1/6 315/1/6
f 315/1/6 312/1/6 316/1/6
f 317/2/6 318/2/6 319/2/6
f 319/2/6 318/2/6 320/2/6
