# MagicaVoxel @ Ephtracy

# material
mtllib BookTunnel.mtl
usemtl palette

# normals
vn -1 0 0
vn 1 0 0
vn 0 0 1
vn 0 0 -1
vn 0 -1 0
vn 0 1 0

# texcoords
vt 0.419922 0.5
vt 0.958984 0.5
vt 0.986328 0.5

# verts
v -20 0 18
v -20 0 2
v -20 0 1
v -20 0 -1
v -20 22 18
v -20 22 2
v -20 22 1
v -20 22 -1
v -19 0 2
v -19 0 1
v -19 22 2
v -19 22 1
v -17 0 -0
v -17 0 -1
v -17 22 -0
v -17 22 -1
v -16 1 10
v -16 1 8
v -16 21 10
v -16 21 8
v -8 1 4
v -8 1 3
v -8 21 4
v -8 21 3
v -7 1 5
v -7 1 4
v -7 21 5
v -7 21 4
v -19 0 18
v -19 0 2
v -19 1 17
v -19 1 2
v -19 21 17
v -19 21 2
v -19 22 18
v -19 22 2
v -18 0 2
v -18 0 1
v -18 0 -0
v -18 0 -1
v -18 1 17
v -18 1 14
v -18 1 2
v -18 1 1
v -18 21 17
v -18 21 14
v -18 21 2
v -18 21 1
v -18 22 2
v -18 22 1
v -18 22 -0
v -18 22 -1
v -17 0 1
v -17 0 -0
v -17 1 14
v -17 1 12
v -17 1 10
v -17 1 8
v -17 1 1
v -17 1 -0
v -17 21 14
v -17 21 12
v -17 21 10
v -17 21 8
v -17 21 1
v -17 21 -0
v -17 22 1
v -17 22 -0
v -16 1 12
v -16 1 10
v -16 1 8
v -16 1 3
v -16 21 12
v -16 21 10
v -16 21 8
v -16 21 3
v -15 1 10
v -15 1 8
v -15 21 10
v -15 21 8
v -8 1 3
v -8 1 2
v -8 21 3
v -8 21 2
v -7 1 4
v -7 1 3
v -7 21 4
v -7 21 3
v -5 1 5
v -5 1 4
v -5 1 2
v -5 1 1
v -5 21 5
v -5 21 4
v -5 21 2
v -5 21 1
v -2 1 1
v -2 1 -0
v -2 21 1
v -2 21 -0
v -1 0 -0
v -1 0 -1
v -1 22 -0
v -1 22 -1
v -20 0 18
v -20 22 18
v -19 0 18
v -19 22 18
v -19 1 17
v -19 21 17
v -18 1 17
v -18 21 17
v -18 1 14
v -18 21 14
v -17 1 14
v -17 21 14
v -17 1 12
v -17 21 12
v -16 1 12
v -16 21 12
v -16 1 10
v -16 21 10
v -15 1 10
v -15 21 10
v -17 1 8
v -17 21 8
v -16 1 8
v -16 21 8
v -7 1 5
v -7 21 5
v -5 1 5
v -5 21 5
v -8 1 4
v -8 21 4
v -7 1 4
v -7 21 4
v -16 1 3
v -16 21 3
v -8 1 3
v -8 21 3
v -19 0 2
v -19 1 2
v -19 21 2
v -19 22 2
v -18 0 2
v -18 1 2
v -18 21 2
v -18 22 2
v -8 1 2
v -8 21 2
v -5 1 2
v -5 21 2
v -20 0 1
v -20 22 1
v -19 0 1
v -19 22 1
v -18 0 1
v -18 1 1
v -18 21 1
v -18 22 1
v -17 0 1
v -17 1 1
v -17 21 1
v -17 22 1
v -5 1 1
v -5 21 1
v -2 1 1
v -2 21 1
v -17 0 -0
v -17 1 -0
v -17 21 -0
v -17 22 -0
v -2 1 -0
v -2 21 -0
v -1 0 -0
v -1 22 -0
v -17 1 10
v -17 21 10
v -16 1 10
v -16 21 10
v -16 1 8
v -16 21 8
v -15 1 8
v -15 21 8
v -7 1 4
v -7 21 4
v -5 1 4
v -5 21 4
v -8 1 3
v -8 21 3
v -7 1 3
v -7 21 3
v -20 0 2
v -20 22 2
v -19 0 2
v -19 22 2
v -18 0 -0
v -18 22 -0
v -17 0 -0
v -17 22 -0
v -20 0 -1
v -20 22 -1
v -18 0 -1
v -18 22 -1
v -17 0 -1
v -17 22 -1
v -1 0 -1
v -1 22 -1
v -20 0 18
v -19 0 18
v -20 0 2
v -19 0 2
v -18 0 2
v -20 0 1
v -19 0 1
v -18 0 1
v -17 0 1
v -19 0 -0
v -18 0 -0
v -17 0 -0
v -1 0 -0
v -20 0 -1
v -18 0 -1
v -17 0 -1
v -1 0 -1
v -19 1 17
v -18 1 17
v -18 1 14
v -17 1 14
v -17 1 12
v -16 1 12
v -17 1 10
v -16 1 10
v -15 1 10
v -17 1 8
v -16 1 8
v -15 1 8
v -7 1 5
v -5 1 5
v -8 1 4
v -7 1 4
v -5 1 4
v -16 1 3
v -8 1 3
v -7 1 3
v -19 1 2
v -18 1 2
v -8 1 2
v -5 1 2
v -18 1 1
v -17 1 1
v -5 1 1
v -2 1 1
v -17 1 -0
v -2 1 -0
v -19 21 17
v -18 21 17
v -18 21 14
v -17 21 14
v -17 21 12
v -16 21 12
v -17 21 10
v -16 21 10
v -15 21 10
v -17 21 8
v -16 21 8
v -15 21 8
v -7 21 5
v -5 21 5
v -8 21 4
v -7 21 4
v -5 21 4
v -16 21 3
v -8 21 3
v -7 21 3
v -19 21 2
v -18 21 2
v -8 21 2
v -5 21 2
v -18 21 1
v -17 21 1
v -5 21 1
v -2 21 1
v -17 21 -0
v -2 21 -0
v -20 22 18
v -19 22 18
v -20 22 2
v -19 22 2
v -18 22 2
v -20 22 1
v -19 22 1
v -18 22 1
v -17 22 1
v -19 22 -0
v -18 22 -0
v -17 22 -0
v -1 22 -0
v -20 22 -1
v -18 22 -1
v -17 22 -1
v -1 22 -1

# faces
f 5/1/1 2/1/1 1/1/1
f 6/1/1 2/1/1 5/1/1
f 7/1/1 4/1/1 3/1/1
f 8/1/1 4/1/1 7/1/1
f 11/3/1 10/3/1 9/3/1
f 12/3/1 10/3/1 11/3/1
f 15/1/1 14/1/1 13/1/1
f 16/1/1 14/1/1 15/1/1
f 19/2/1 18/2/1 17/2/1
f 20/2/1 18/2/1 19/2/1
f 23/2/1 22/2/1 21/2/1
f 24/2/1 22/2/1 23/2/1
f 27/2/1 26/2/1 25/2/1
f 28/2/1 26/2/1 27/2/1
f 29/1/2 30/1/2 31/1/2
f 31/1/2 30/1/2 32/1/2
f 29/1/2 31/1/2 33/1/2
f 29/1/2 33/1/2 35/1/2
f 33/1/2 34/1/2 35/1/2
f 35/1/2 34/1/2 36/1/2
f 37/3/2 38/3/2 43/3/2
f 43/3/2 38/3/2 44/3/2
f 41/2/2 42/2/2 45/2/2
f 45/2/2 42/2/2 46/2/2
f 47/3/2 48/3/2 49/3/2
f 49/3/2 48/3/2 50/3/2
f 39/1/2 40/1/2 51/1/2
f 51/1/2 40/1/2 52/1/2
f 53/3/2 54/3/2 59/3/2
f 59/3/2 54/3/2 60/3/2
f 55/2/2 56/2/2 61/2/2
f 61/2/2 56/2/2 62/2/2
f 57/2/2 58/2/2 63/2/2
f 63/2/2 58/2/2 64/2/2
f 65/3/2 66/3/2 67/3/2
f 67/3/2 66/3/2 68/3/2
f 69/2/2 70/2/2 73/2/2
f 73/2/2 70/2/2 74/2/2
f 71/2/2 72/2/2 75/2/2
f 75/2/2 72/2/2 76/2/2
f 77/2/2 78/2/2 79/2/2
f 79/2/2 78/2/2 80/2/2
f 81/2/2 82/2/2 83/2/2
f 83/2/2 82/2/2 84/2/2
f 85/2/2 86/2/2 87/2/2
f 87/2/2 86/2/2 88/2/2
f 89/2/2 90/2/2 93/2/2
f 93/2/2 90/2/2 94/2/2
f 91/2/2 92/2/2 95/2/2
f 95/2/2 92/2/2 96/2/2
f 97/2/2 98/2/2 99/2/2
f 99/2/2 98/2/2 100/2/2
f 101/1/2 102/1/2 103/1/2
f 103/1/2 102/1/2 104/1/2
f 107/1/3 106/1/3 105/1/3
f 108/1/3 106/1/3 107/1/3
f 111/2/3 110/2/3 109/2/3
f 112/2/3 110/2/3 111/2/3
f 115/2/3 114/2/3 113/2/3
f 116/2/3 114/2/3 115/2/3
f 119/2/3 118/2/3 117/2/3
f 120/2/3 118/2/3 119/2/3
f 123/2/3 122/2/3 121/2/3
f 124/2/3 122/2/3 123/2/3
f 127/2/3 126/2/3 125/2/3
f 128/2/3 126/2/3 127/2/3
f 131/2/3 130/2/3 129/2/3
f 132/2/3 130/2/3 131/2/3
f 135/2/3 134/2/3 133/2/3
f 136/2/3 134/2/3 135/2/3
f 139/2/3 138/2/3 137/2/3
f 140/2/3 138/2/3 139/2/3
f 145/3/3 142/3/3 141/3/3
f 146/3/3 142/3/3 145/3/3
f 147/3/3 144/3/3 143/3/3
f 148/3/3 144/3/3 147/3/3
f 151/2/3 150/2/3 149/2/3
f 152/2/3 150/2/3 151/2/3
f 155/1/3 154/1/3 153/1/3
f 156/1/3 154/1/3 155/1/3
f 161/3/3 158/3/3 157/3/3
f 162/3/3 158/3/3 161/3/3
f 163/3/3 160/3/3 159/3/3
f 164/3/3 160/3/3 163/3/3
f 167/2/3 166/2/3 165/2/3
f 168/2/3 166/2/3 167/2/3
f 173/1/3 170/1/3 169/1/3
f 174/1/3 172/1/3 171/1/3
f 175/1/3 173/1/3 169/1/3
f 175/1/3 174/1/3 173/1/3
f 176/1/3 172/1/3 174/1/3
f 176/1/3 174/1/3 175/1/3
f 177/2/4 178/2/4 179/2/4
f 179/2/4 178/2/4 180/2/4
f 181/2/4 182/2/4 183/2/4
f 183/2/4 182/2/4 184/2/4
f 185/2/4 186/2/4 187/2/4
f 187/2/4 186/2/4 188/2/4
f 189/2/4 190/2/4 191/2/4
f 191/2/4 190/2/4 192/2/4
f 193/1/4 194/1/4 195/1/4
f 195/1/4 194/1/4 196/1/4
f 197/3/4 198/3/4 199/3/4
f 199/3/4 198/3/4 200/3/4
f 201/1/4 202/1/4 203/1/4
f 203/1/4 202/1/4 204/1/4
f 205/1/4 206/1/4 207/1/4
f 207/1/4 206/1/4 208/1/4
f 211/1/5 210/1/5 209/1/5
f 212/1/5 210/1/5 211/1/5
f 215/3/5 213/3/5 212/3/5
f 216/3/5 213/3/5 215/3/5
f 218/1/5 215/1/5 214/1/5
f 218/3/5 217/3/5 216/3/5
f 218/3/5 216/3/5 215/3/5
f 219/3/5 217/3/5 218/3/5
f 220/3/5 217/3/5 219/3/5
f 222/1/5 218/1/5 214/1/5
f 222/1/5 219/1/5 218/1/5
f 223/1/5 219/1/5 222/1/5
f 224/1/5 221/1/5 220/1/5
f 225/1/5 221/1/5 224/1/5
f 228/2/5 227/2/5 226/2/5
f 230/2/5 229/2/5 228/2/5
f 232/2/5 230/2/5 228/2/5
f 232/2/5 231/2/5 230/2/5
f 233/2/5 231/2/5 232/2/5
f 235/2/5 232/2/5 228/2/5
f 236/2/5 234/2/5 233/2/5
f 237/2/5 234/2/5 236/2/5
f 241/2/5 239/2/5 238/2/5
f 242/2/5 239/2/5 241/2/5
f 243/2/5 236/2/5 235/2/5
f 244/2/5 241/2/5 240/2/5
f 245/2/5 241/2/5 244/2/5
f 246/2/5 228/2/5 226/2/5
f 246/2/5 235/2/5 228/2/5
f 246/2/5 244/2/5 243/2/5
f 246/2/5 243/2/5 235/2/5
f 247/2/5 244/2/5 246/2/5
f 248/2/5 244/2/5 247/2/5
f 250/2/5 248/2/5 247/2/5
f 250/2/5 249/2/5 248/2/5
f 251/2/5 249/2/5 250/2/5
f 252/2/5 249/2/5 251/2/5
f 254/2/5 252/2/5 251/2/5
f 254/2/5 253/2/5 252/2/5
f 255/2/5 253/2/5 254/2/5
f 256/2/6 257/2/6 258/2/6
f 258/2/6 259/2/6 260/2/6
f 258/2/6 260/2/6 262/2/6
f 260/2/6 261/2/6 262/2/6
f 262/2/6 261/2/6 263/2/6
f 258/2/6 262/2/6 265/2/6
f 263/2/6 264/2/6 266/2/6
f 266/2/6 264/2/6 267/2/6
f 268/2/6 269/2/6 271/2/6
f 271/2/6 269/2/6 272/2/6
f 265/2/6 266/2/6 273/2/6
f 270/2/6 271/2/6 274/2/6
f 274/2/6 271/2/6 275/2/6
f 256/2/6 258/2/6 276/2/6
f 258/2/6 265/2/6 276/2/6
f 273/2/6 274/2/6 276/2/6
f 265/2/6 273/2/6 276/2/6
f 276/2/6 274/2/6 277/2/6
f 277/2/6 274/2/6 278/2/6
f 277/2/6 278/2/6 280/2/6
f 278/2/6 279/2/6 280/2/6
f 280/2/6 279/2/6 281/2/6
f 281/2/6 279/2/6 282/2/6
f 281/2/6 282/2/6 284/2/6
f 282/2/6 283/2/6 284/2/6
f 284/2/6 283/2/6 285/2/6
f 286/1/6 287/1/6 288/1/6
f 288/1/6 287/1/6 289/1/6
f 289/3/6 290/3/6 292/3/6
f 292/3/6 290/3/6 293/3/6
f 291/1/6 292/1/6 295/1/6
f 293/3/6 294/3/6 295/3/6
f 292/3/6 293/3/6 295/3/6
f 295/3/6 294/3/6 296/3/6
f 296/3/6 294/3/6 297/3/6
f 291/1/6 295/1/6 299/1/6
f 295/1/6 296/1/6 299/1/6
f 299/1/6 296/1/6 300/1/6
f 297/1/6 298/1/6 301/1/6
f 301/1/6 298/1/6 302/1/6
