# MagicaVoxel @ Ephtracy

# material
mtllib Sciccor.mtl
usemtl palette

# normals
vn -1 0 0
vn 1 0 0
vn 0 0 1
vn 0 0 -1
vn 0 -1 0
vn 0 1 0

# texcoords
vt 0.693359 0.5
vt 0.974609 0.5
vt 0.986328 0.5

# verts
v -13 1 2
v -13 1 1
v -13 6 2
v -13 6 1
v -13 26 2
v -13 26 1
v -13 27 2
v -13 27 1
v -12 0 2
v -12 0 1
v -12 1 2
v -12 1 1
v -12 6 2
v -12 6 1
v -12 7 2
v -12 7 1
v -12 24 2
v -12 24 1
v -12 26 2
v -12 26 1
v -11 23 2
v -11 23 1
v -11 24 2
v -11 24 1
v -10 21 2
v -10 21 1
v -10 23 2
v -10 23 1
v -9 7 2
v -9 7 1
v -9 8 2
v -9 8 1
v -9 20 2
v -9 20 1
v -9 21 2
v -9 21 1
v -8 1 2
v -8 1 1
v -8 2 2
v -8 2 1
v -8 5 2
v -8 5 1
v -8 6 2
v -8 6 1
v -8 8 2
v -8 8 1
v -8 10 2
v -8 10 1
v -8 18 2
v -8 18 1
v -8 20 2
v -8 20 1
v -7 2 2
v -7 2 1
v -7 5 2
v -7 5 1
v -7 10 2
v -7 10 1
v -7 11 2
v -7 11 1
v -7 16 2
v -7 16 1
v -7 18 2
v -7 18 1
v -6 11 2
v -6 11 1
v -6 13 2
v -6 13 1
v -6 15 2
v -6 15 1
v -6 16 2
v -6 16 1
v -5 13 2
v -5 13 1
v -5 15 2
v -5 15 1
v -4 14 3
v -4 14 2
v -4 16 3
v -4 16 2
v -3 13 3
v -3 13 2
v -3 14 3
v -3 14 2
v -3 16 3
v -3 16 2
v -3 18 3
v -3 18 2
v -2 10 3
v -2 10 2
v -2 13 3
v -2 13 2
v -2 18 3
v -2 18 2
v -2 19 3
v -2 19 2
v -1 7 3
v -1 7 2
v -1 10 3
v -1 10 2
v -1 19 3
v -1 19 2
v -1 20 3
v -1 20 2
v 0 1 3
v 0 1 2
v 0 7 3
v 0 7 2
v 0 20 3
v 0 20 2
v 0 21 3
v 0 21 2
v 1 0 3
v 1 0 2
v 1 1 3
v 1 1 2
v 1 21 3
v 1 21 2
v 1 22 3
v 1 22 2
v 2 22 3
v 2 22 2
v 2 23 3
v 2 23 2
v 3 23 3
v 3 23 2
v 3 24 3
v 3 24 2
v 4 24 3
v 4 24 2
v 4 25 3
v 4 25 2
v 5 1 3
v 5 1 2
v 5 2 3
v 5 2 2
v 5 5 3
v 5 5 2
v 5 6 3
v 5 6 2
v 5 25 3
v 5 25 2
v 5 26 3
v 5 26 2
v 6 2 3
v 6 2 2
v 6 5 3
v 6 5 2
v 6 26 3
v 6 26 2
v 6 27 3
v 6 27 2
v -12 2 2
v -12 2 1
v -12 5 2
v -12 5 1
v -12 26 2
v -12 26 1
v -12 27 2
v -12 27 1
v -11 1 2
v -11 1 1
v -11 2 2
v -11 2 1
v -11 5 2
v -11 5 1
v -11 6 2
v -11 6 1
v -11 25 2
v -11 25 1
v -11 26 2
v -11 26 1
v -10 24 2
v -10 24 1
v -10 25 2
v -10 25 1
v -9 23 2
v -9 23 1
v -9 24 2
v -9 24 1
v -8 22 2
v -8 22 1
v -8 23 2
v -8 23 1
v -7 0 2
v -7 0 1
v -7 1 2
v -7 1 1
v -7 21 2
v -7 21 1
v -7 22 2
v -7 22 1
v -6 1 2
v -6 1 1
v -6 7 2
v -6 7 1
v -6 20 2
v -6 20 1
v -6 21 2
v -6 21 1
v -5 7 2
v -5 7 1
v -5 10 2
v -5 10 1
v -5 19 2
v -5 19 1
v -5 20 2
v -5 20 1
v -4 10 2
v -4 10 1
v -4 13 2
v -4 13 1
v -4 18 2
v -4 18 1
v -4 19 2
v -4 19 1
v -3 13 2
v -3 13 1
v -3 14 2
v -3 14 1
v -3 16 2
v -3 16 1
v -3 18 2
v -3 18 1
v -2 14 2
v -2 14 1
v -2 16 2
v -2 16 1
v -1 13 3
v -1 13 2
v -1 15 3
v -1 15 2
v 0 11 3
v 0 11 2
v 0 13 3
v 0 13 2
v 0 15 3
v 0 15 2
v 0 16 3
v 0 16 2
v 1 2 3
v 1 2 2
v 1 5 3
v 1 5 2
v 1 10 3
v 1 10 2
v 1 11 3
v 1 11 2
v 1 16 3
v 1 16 2
v 1 18 3
v 1 18 2
v 2 1 3
v 2 1 2
v 2 2 3
v 2 2 2
v 2 5 3
v 2 5 2
v 2 6 3
v 2 6 2
v 2 8 3
v 2 8 2
v 2 10 3
v 2 10 2
v 2 18 3
v 2 18 2
v 2 20 3
v 2 20 2
v 3 7 3
v 3 7 2
v 3 8 3
v 3 8 2
v 3 20 3
v 3 20 2
v 3 21 3
v 3 21 2
v 4 21 3
v 4 21 2
v 4 23 3
v 4 23 2
v 5 23 3
v 5 23 2
v 5 24 3
v 5 24 2
v 6 0 3
v 6 0 2
v 6 1 3
v 6 1 2
v 6 6 3
v 6 6 2
v 6 7 3
v 6 7 2
v 6 24 3
v 6 24 2
v 6 26 3
v 6 26 2
v 7 1 3
v 7 1 2
v 7 6 3
v 7 6 2
v 7 26 3
v 7 26 2
v 7 27 3
v 7 27 2
v -4 14 3
v -4 16 3
v -3 13 3
v -3 14 3
v -3 16 3
v -3 18 3
v -2 10 3
v -2 13 3
v -2 14 3
v -2 16 3
v -2 18 3
v -2 19 3
v -1 7 3
v -1 10 3
v -1 13 3
v -1 15 3
v -1 19 3
v -1 20 3
v 0 1 3
v 0 7 3
v 0 9 3
v 0 11 3
v 0 13 3
v 0 15 3
v 0 16 3
v 0 20 3
v 0 21 3
v 1 0 3
v 1 1 3
v 1 2 3
v 1 5 3
v 1 9 3
v 1 10 3
v 1 11 3
v 1 16 3
v 1 18 3
v 1 21 3
v 1 22 3
v 2 1 3
v 2 2 3
v 2 5 3
v 2 6 3
v 2 8 3
v 2 10 3
v 2 18 3
v 2 20 3
v 2 22 3
v 2 23 3
v 3 7 3
v 3 8 3
v 3 20 3
v 3 21 3
v 3 23 3
v 3 24 3
v 4 21 3
v 4 23 3
v 4 24 3
v 4 25 3
v 5 1 3
v 5 2 3
v 5 5 3
v 5 6 3
v 5 23 3
v 5 24 3
v 5 25 3
v 5 26 3
v 6 0 3
v 6 1 3
v 6 2 3
v 6 5 3
v 6 6 3
v 6 7 3
v 6 24 3
v 6 26 3
v 6 27 3
v 7 1 3
v 7 6 3
v 7 26 3
v 7 27 3
v -13 1 2
v -13 6 2
v -13 26 2
v -13 27 2
v -12 0 2
v -12 1 2
v -12 2 2
v -12 5 2
v -12 6 2
v -12 7 2
v -12 24 2
v -12 26 2
v -12 27 2
v -11 1 2
v -11 2 2
v -11 5 2
v -11 6 2
v -11 23 2
v -11 24 2
v -11 25 2
v -11 26 2
v -10 21 2
v -10 23 2
v -10 24 2
v -10 25 2
v -9 7 2
v -9 8 2
v -9 20 2
v -9 21 2
v -9 23 2
v -9 24 2
v -8 1 2
v -8 2 2
v -8 5 2
v -8 6 2
v -8 8 2
v -8 10 2
v -8 18 2
v -8 20 2
v -8 22 2
v -8 23 2
v -7 0 2
v -7 1 2
v -7 2 2
v -7 5 2
v -7 9 2
v -7 10 2
v -7 11 2
v -7 16 2
v -7 18 2
v -7 21 2
v -7 22 2
v -6 1 2
v -6 7 2
v -6 9 2
v -6 11 2
v -6 13 2
v -6 15 2
v -6 16 2
v -6 20 2
v -6 21 2
v -5 7 2
v -5 10 2
v -5 13 2
v -5 15 2
v -5 19 2
v -5 20 2
v -4 10 2
v -4 13 2
v -4 14 2
v -4 16 2
v -4 18 2
v -4 19 2
v -3 13 2
v -3 14 2
v -3 16 2
v -3 18 2
v -3 13 2
v -3 14 2
v -3 16 2
v -3 18 2
v -2 10 2
v -2 13 2
v -2 14 2
v -2 16 2
v -2 18 2
v -2 19 2
v -1 7 2
v -1 10 2
v -1 13 2
v -1 15 2
v -1 19 2
v -1 20 2
v 0 1 2
v 0 7 2
v 0 9 2
v 0 11 2
v 0 13 2
v 0 15 2
v 0 16 2
v 0 20 2
v 0 21 2
v 1 0 2
v 1 1 2
v 1 2 2
v 1 5 2
v 1 9 2
v 1 10 2
v 1 11 2
v 1 16 2
v 1 18 2
v 1 21 2
v 1 22 2
v 2 1 2
v 2 2 2
v 2 5 2
v 2 6 2
v 2 8 2
v 2 10 2
v 2 18 2
v 2 20 2
v 2 22 2
v 2 23 2
v 3 7 2
v 3 8 2
v 3 20 2
v 3 21 2
v 3 23 2
v 3 24 2
v 4 21 2
v 4 23 2
v 4 24 2
v 4 25 2
v 5 1 2
v 5 2 2
v 5 5 2
v 5 6 2
v 5 23 2
v 5 24 2
v 5 25 2
v 5 26 2
v 6 0 2
v 6 1 2
v 6 2 2
v 6 5 2
v 6 6 2
v 6 7 2
v 6 24 2
v 6 26 2
v 6 27 2
v 7 1 2
v 7 6 2
v 7 26 2
v 7 27 2
v -13 1 1
v -13 6 1
v -13 26 1
v -13 27 1
v -12 0 1
v -12 1 1
v -12 2 1
v -12 5 1
v -12 6 1
v -12 7 1
v -12 24 1
v -12 26 1
v -12 27 1
v -11 1 1
v -11 2 1
v -11 5 1
v -11 6 1
v -11 23 1
v -11 24 1
v -11 25 1
v -11 26 1
v -10 21 1
v -10 23 1
v -10 24 1
v -10 25 1
v -9 7 1
v -9 8 1
v -9 20 1
v -9 21 1
v -9 23 1
v -9 24 1
v -8 1 1
v -8 2 1
v -8 5 1
v -8 6 1
v -8 8 1
v -8 10 1
v -8 18 1
v -8 20 1
v -8 22 1
v -8 23 1
v -7 0 1
v -7 1 1
v -7 2 1
v -7 5 1
v -7 9 1
v -7 10 1
v -7 11 1
v -7 16 1
v -7 18 1
v -7 21 1
v -7 22 1
v -6 1 1
v -6 7 1
v -6 9 1
v -6 11 1
v -6 13 1
v -6 15 1
v -6 16 1
v -6 20 1
v -6 21 1
v -5 7 1
v -5 10 1
v -5 13 1
v -5 15 1
v -5 19 1
v -5 20 1
v -4 10 1
v -4 13 1
v -4 14 1
v -4 16 1
v -4 18 1
v -4 19 1
v -3 13 1
v -3 14 1
v -3 16 1
v -3 18 1
v -2 14 1
v -2 16 1
v 1 0 3
v 6 0 3
v -12 0 2
v -7 0 2
v 1 0 2
v 6 0 2
v -12 0 1
v -7 0 1
v 0 1 3
v 1 1 3
v 6 1 3
v 7 1 3
v -13 1 2
v -12 1 2
v -7 1 2
v -6 1 2
v 0 1 2
v 1 1 2
v 6 1 2
v 7 1 2
v -13 1 1
v -12 1 1
v -7 1 1
v -6 1 1
v 1 5 3
v 2 5 3
v 5 5 3
v 6 5 3
v -12 5 2
v -11 5 2
v -8 5 2
v -7 5 2
v 1 5 2
v 2 5 2
v 5 5 2
v 6 5 2
v -12 5 1
v -11 5 1
v -8 5 1
v -7 5 1
v 2 6 3
v 5 6 3
v -11 6 2
v -8 6 2
v 2 6 2
v 5 6 2
v -11 6 1
v -8 6 1
v -1 7 3
v 0 7 3
v -6 7 2
v -5 7 2
v -1 7 2
v 0 7 2
v -6 7 1
v -5 7 1
v -2 10 3
v -1 10 3
v -5 10 2
v -4 10 2
v -2 10 2
v -1 10 2
v -5 10 1
v -4 10 1
v -3 13 3
v -2 13 3
v -4 13 2
v -3 13 2
v -2 13 2
v -4 13 1
v -3 13 1
v -4 14 3
v -3 14 3
v -4 14 2
v -3 14 2
v -2 14 2
v -3 14 1
v -2 14 1
v -1 15 3
v 0 15 3
v -6 15 2
v -5 15 2
v -1 15 2
v 0 15 2
v -6 15 1
v -5 15 1
v 0 16 3
v 1 16 3
v -7 16 2
v -6 16 2
v 0 16 2
v 1 16 2
v -7 16 1
v -6 16 1
v 1 18 3
v 2 18 3
v -8 18 2
v -7 18 2
v 1 18 2
v 2 18 2
v -8 18 1
v -7 18 1
v 2 20 3
v 3 20 3
v -9 20 2
v -8 20 2
v 2 20 2
v 3 20 2
v -9 20 1
v -8 20 1
v 3 21 3
v 4 21 3
v -10 21 2
v -9 21 2
v 3 21 2
v 4 21 2
v -10 21 1
v -9 21 1
v 4 23 3
v 5 23 3
v -11 23 2
v -10 23 2
v 4 23 2
v 5 23 2
v -11 23 1
v -10 23 1
v 5 24 3
v 6 24 3
v -12 24 2
v -11 24 2
v 5 24 2
v 6 24 2
v -12 24 1
v -11 24 1
v 6 26 3
v 7 26 3
v -13 26 2
v -12 26 2
v 6 26 2
v 7 26 2
v -13 26 1
v -12 26 1
v 2 1 3
v 5 1 3
v -11 1 2
v -8 1 2
v 2 1 2
v 5 1 2
v -11 1 1
v -8 1 1
v 1 2 3
v 2 2 3
v 5 2 3
v 6 2 3
v -12 2 2
v -11 2 2
v -8 2 2
v -7 2 2
v 1 2 2
v 2 2 2
v 5 2 2
v 6 2 2
v -12 2 1
v -11 2 1
v -8 2 1
v -7 2 1
v 6 6 3
v 7 6 3
v -13 6 2
v -12 6 2
v 6 6 2
v 7 6 2
v -13 6 1
v -12 6 1
v 3 7 3
v 6 7 3
v -12 7 2
v -9 7 2
v 3 7 2
v 6 7 2
v -12 7 1
v -9 7 1
v 2 8 3
v 3 8 3
v -9 8 2
v -8 8 2
v 2 8 2
v 3 8 2
v -9 8 1
v -8 8 1
v 1 10 3
v 2 10 3
v -8 10 2
v -7 10 2
v 1 10 2
v 2 10 2
v -8 10 1
v -7 10 1
v 0 11 3
v 1 11 3
v -7 11 2
v -6 11 2
v 0 11 2
v 1 11 2
v -7 11 1
v -6 11 1
v -1 13 3
v 0 13 3
v -6 13 2
v -5 13 2
v -1 13 2
v 0 13 2
v -6 13 1
v -5 13 1
v -4 16 3
v -3 16 3
v -4 16 2
v -3 16 2
v -2 16 2
v -3 16 1
v -2 16 1
v -3 18 3
v -2 18 3
v -4 18 2
v -3 18 2
v -2 18 2
v -4 18 1
v -3 18 1
v -2 19 3
v -1 19 3
v -5 19 2
v -4 19 2
v -2 19 2
v -1 19 2
v -5 19 1
v -4 19 1
v -1 20 3
v 0 20 3
v -6 20 2
v -5 20 2
v -1 20 2
v 0 20 2
v -6 20 1
v -5 20 1
v 0 21 3
v 1 21 3
v -7 21 2
v -6 21 2
v 0 21 2
v 1 21 2
v -7 21 1
v -6 21 1
v 1 22 3
v 2 22 3
v -8 22 2
v -7 22 2
v 1 22 2
v 2 22 2
v -8 22 1
v -7 22 1
v 2 23 3
v 3 23 3
v -9 23 2
v -8 23 2
v 2 23 2
v 3 23 2
v -9 23 1
v -8 23 1
v 3 24 3
v 4 24 3
v -10 24 2
v -9 24 2
v 3 24 2
v 4 24 2
v -10 24 1
v -9 24 1
v 4 25 3
v 5 25 3
v -11 25 2
v -10 25 2
v 4 25 2
v 5 25 2
v -11 25 1
v -10 25 1
v 5 26 3
v 6 26 3
v -12 26 2
v -11 26 2
v 5 26 2
v 6 26 2
v -12 26 1
v -11 26 1
v 6 27 3
v 7 27 3
v -13 27 2
v -12 27 2
v 6 27 2
v 7 27 2
v -13 27 1
v -12 27 1

# faces
f 3/1/1 2/1/1 1/1/1
f 4/1/1 2/1/1 3/1/1
f 7/2/1 6/2/1 5/2/1
f 8/2/1 6/2/1 7/2/1
f 11/1/1 10/1/1 9/1/1
f 12/1/1 10/1/1 11/1/1
f 15/1/1 14/1/1 13/1/1
f 16/1/1 14/1/1 15/1/1
f 19/2/1 18/2/1 17/2/1
f 20/2/1 18/2/1 19/2/1
f 23/2/1 22/2/1 21/2/1
f 24/2/1 22/2/1 23/2/1
f 27/2/1 26/2/1 25/2/1
f 28/2/1 26/2/1 27/2/1
f 31/1/1 30/1/1 29/1/1
f 32/1/1 30/1/1 31/1/1
f 35/2/1 34/2/1 33/2/1
f 36/2/1 34/2/1 35/2/1
f 39/1/1 38/1/1 37/1/1
f 40/1/1 38/1/1 39/1/1
f 43/1/1 42/1/1 41/1/1
f 44/1/1 42/1/1 43/1/1
f 47/1/1 46/1/1 45/1/1
f 48/1/1 46/1/1 47/1/1
f 51/2/1 50/2/1 49/2/1
f 52/2/1 50/2/1 51/2/1
f 55/1/1 54/1/1 53/1/1
f 56/1/1 54/1/1 55/1/1
f 59/2/1 58/2/1 57/2/1
f 60/2/1 58/2/1 59/2/1
f 63/2/1 62/2/1 61/2/1
f 64/2/1 62/2/1 63/2/1
f 67/2/1 66/2/1 65/2/1
f 68/2/1 66/2/1 67/2/1
f 71/2/1 70/2/1 69/2/1
f 72/2/1 70/2/1 71/2/1
f 75/2/1 74/2/1 73/2/1
f 76/2/1 74/2/1 75/2/1
f 79/3/1 78/3/1 77/3/1
f 80/3/1 78/3/1 79/3/1
f 83/2/1 82/2/1 81/2/1
f 84/2/1 82/2/1 83/2/1
f 87/2/1 86/2/1 85/2/1
f 88/2/1 86/2/1 87/2/1
f 91/2/1 90/2/1 89/2/1
f 92/2/1 90/2/1 91/2/1
f 95/2/1 94/2/1 93/2/1
f 96/2/1 94/2/1 95/2/1
f 99/2/1 98/2/1 97/2/1
f 100/2/1 98/2/1 99/2/1
f 103/2/1 102/2/1 101/2/1
f 104/2/1 102/2/1 103/2/1
f 107/1/1 106/1/1 105/1/1
f 108/1/1 106/1/1 107/1/1
f 111/2/1 110/2/1 109/2/1
f 112/2/1 110/2/1 111/2/1
f 115/1/1 114/1/1 113/1/1
f 116/1/1 114/1/1 115/1/1
f 119/2/1 118/2/1 117/2/1
f 120/2/1 118/2/1 119/2/1
f 123/2/1 122/2/1 121/2/1
f 124/2/1 122/2/1 123/2/1
f 127/2/1 126/2/1 125/2/1
f 128/2/1 126/2/1 127/2/1
f 131/2/1 130/2/1 129/2/1
f 132/2/1 130/2/1 131/2/1
f 135/1/1 134/1/1 133/1/1
f 136/1/1 134/1/1 135/1/1
f 139/1/1 138/1/1 137/1/1
f 140/1/1 138/1/1 139/1/1
f 143/2/1 142/2/1 141/2/1
f 144/2/1 142/2/1 143/2/1
f 147/1/1 146/1/1 145/1/1
f 148/1/1 146/1/1 147/1/1
f 151/2/1 150/2/1 149/2/1
f 152/2/1 150/2/1 151/2/1
f 153/1/2 154/1/2 155/1/2
f 155/1/2 154/1/2 156/1/2
f 157/2/2 158/2/2 159/2/2
f 159/2/2 158/2/2 160/2/2
f 161/1/2 162/1/2 163/1/2
f 163/1/2 162/1/2 164/1/2
f 165/1/2 166/1/2 167/1/2
f 167/1/2 166/1/2 168/1/2
f 169/2/2 170/2/2 171/2/2
f 171/2/2 170/2/2 172/2/2
f 173/2/2 174/2/2 175/2/2
f 175/2/2 174/2/2 176/2/2
f 177/2/2 178/2/2 179/2/2
f 179/2/2 178/2/2 180/2/2
f 181/2/2 182/2/2 183/2/2
f 183/2/2 182/2/2 184/2/2
f 185/1/2 186/1/2 187/1/2
f 187/1/2 186/1/2 188/1/2
f 189/2/2 190/2/2 191/2/2
f 191/2/2 190/2/2 192/2/2
f 193/1/2 194/1/2 195/1/2
f 195/1/2 194/1/2 196/1/2
f 197/2/2 198/2/2 199/2/2
f 199/2/2 198/2/2 200/2/2
f 201/2/2 202/2/2 203/2/2
f 203/2/2 202/2/2 204/2/2
f 205/2/2 206/2/2 207/2/2
f 207/2/2 206/2/2 208/2/2
f 209/2/2 210/2/2 211/2/2
f 211/2/2 210/2/2 212/2/2
f 213/2/2 214/2/2 215/2/2
f 215/2/2 214/2/2 216/2/2
f 217/2/2 218/2/2 219/2/2
f 219/2/2 218/2/2 220/2/2
f 221/2/2 222/2/2 223/2/2
f 223/2/2 222/2/2 224/2/2
f 225/3/2 226/3/2 227/3/2
f 227/3/2 226/3/2 228/3/2
f 229/2/2 230/2/2 231/2/2
f 231/2/2 230/2/2 232/2/2
f 233/2/2 234/2/2 235/2/2
f 235/2/2 234/2/2 236/2/2
f 237/2/2 238/2/2 239/2/2
f 239/2/2 238/2/2 240/2/2
f 241/1/2 242/1/2 243/1/2
f 243/1/2 242/1/2 244/1/2
f 245/2/2 246/2/2 247/2/2
f 247/2/2 246/2/2 248/2/2
f 249/2/2 250/2/2 251/2/2
f 251/2/2 250/2/2 252/2/2
f 253/1/2 254/1/2 255/1/2
f 255/1/2 254/1/2 256/1/2
f 257/1/2 258/1/2 259/1/2
f 259/1/2 258/1/2 260/1/2
f 261/1/2 262/1/2 263/1/2
f 263/1/2 262/1/2 264/1/2
f 265/2/2 266/2/2 267/2/2
f 267/2/2 266/2/2 268/2/2
f 269/1/2 270/1/2 271/1/2
f 271/1/2 270/1/2 272/1/2
f 273/2/2 274/2/2 275/2/2
f 275/2/2 274/2/2 276/2/2
f 277/2/2 278/2/2 279/2/2
f 279/2/2 278/2/2 280/2/2
f 281/2/2 282/2/2 283/2/2
f 283/2/2 282/2/2 284/2/2
f 285/1/2 286/1/2 287/1/2
f 287/1/2 286/1/2 288/1/2
f 289/1/2 290/1/2 291/1/2
f 291/1/2 290/1/2 292/1/2
f 293/2/2 294/2/2 295/2/2
f 295/2/2 294/2/2 296/2/2
f 297/1/2 298/1/2 299/1/2
f 299/1/2 298/1/2 300/1/2
f 301/2/2 302/2/2 303/2/2
f 303/2/2 302/2/2 304/2/2
f 308/3/3 306/3/3 305/3/3
f 309/3/3 306/3/3 308/3/3
f 312/2/3 308/2/3 307/2/3
f 313/3/3 309/3/3 308/3/3
f 313/2/3 308/2/3 312/2/3
f 314/2/3 310/2/3 309/2/3
f 314/3/3 309/3/3 313/3/3
f 315/2/3 310/2/3 314/2/3
f 318/2/3 313/2/3 312/2/3
f 318/2/3 316/2/3 315/2/3
f 318/2/3 315/2/3 314/2/3
f 318/2/3 314/2/3 313/2/3
f 318/2/3 312/2/3 311/2/3
f 319/2/3 316/2/3 318/2/3
f 320/2/3 316/2/3 319/2/3
f 321/2/3 316/2/3 320/2/3
f 324/2/3 318/2/3 317/2/3
f 324/2/3 319/2/3 318/2/3
f 325/2/3 319/2/3 324/2/3
f 326/2/3 319/2/3 325/2/3
f 327/2/3 319/2/3 326/2/3
f 328/2/3 321/2/3 320/2/3
f 328/2/3 322/2/3 321/2/3
f 329/2/3 322/2/3 328/2/3
f 330/2/3 322/2/3 329/2/3
f 333/1/3 324/1/3 323/1/3
f 333/1/3 325/1/3 324/1/3
f 334/1/3 325/1/3 333/1/3
f 335/1/3 325/1/3 334/1/3
f 336/2/3 326/2/3 325/2/3
f 336/1/3 325/1/3 335/1/3
f 337/2/3 326/2/3 336/2/3
f 338/2/3 326/2/3 337/2/3
f 339/2/3 331/2/3 330/2/3
f 339/2/3 330/2/3 329/2/3
f 340/2/3 331/2/3 339/2/3
f 341/2/3 331/2/3 340/2/3
f 343/1/3 333/1/3 332/1/3
f 343/1/3 334/1/3 333/1/3
f 344/1/3 334/1/3 343/1/3
f 345/1/3 337/1/3 336/1/3
f 345/1/3 336/1/3 335/1/3
f 346/1/3 337/1/3 345/1/3
f 347/1/3 337/1/3 346/1/3
f 348/1/3 337/1/3 347/1/3
f 349/2/3 342/2/3 341/2/3
f 349/2/3 341/2/3 340/2/3
f 350/2/3 342/2/3 349/2/3
f 351/2/3 342/2/3 350/2/3
f 353/1/3 347/1/3 346/1/3
f 354/1/3 347/1/3 353/1/3
f 355/2/3 352/2/3 351/2/3
f 355/2/3 351/2/3 350/2/3
f 356/2/3 352/2/3 355/2/3
f 357/2/3 352/2/3 356/2/3
f 359/2/3 358/2/3 357/2/3
f 359/2/3 357/2/3 356/2/3
f 360/2/3 358/2/3 359/2/3
f 361/2/3 358/2/3 360/2/3
f 363/1/3 343/1/3 332/1/3
f 366/1/3 353/1/3 346/1/3
f 367/2/3 362/2/3 361/2/3
f 367/2/3 361/2/3 360/2/3
f 368/2/3 362/2/3 367/2/3
f 369/2/3 362/2/3 368/2/3
f 371/1/3 364/1/3 363/1/3
f 371/1/3 363/1/3 332/1/3
f 372/1/3 364/1/3 371/1/3
f 373/1/3 364/1/3 372/1/3
f 374/1/3 366/1/3 365/1/3
f 375/1/3 353/1/3 366/1/3
f 375/1/3 366/1/3 374/1/3
f 376/1/3 353/1/3 375/1/3
f 377/2/3 370/2/3 369/2/3
f 377/2/3 369/2/3 368/2/3
f 378/2/3 370/2/3 377/2/3
f 380/1/3 373/1/3 372/1/3
f 380/1/3 374/1/3 373/1/3
f 380/1/3 375/1/3 374/1/3
f 381/1/3 375/1/3 380/1/3
f 382/2/3 379/2/3 378/2/3
f 383/2/3 379/2/3 382/2/3
f 389/1/3 385/1/3 384/1/3
f 390/1/3 385/1/3 389/1/3
f 391/1/3 385/1/3 390/1/3
f 392/1/3 385/1/3 391/1/3
f 395/2/3 387/2/3 386/2/3
f 396/2/3 387/2/3 395/2/3
f 397/1/3 389/1/3 388/1/3
f 397/1/3 390/1/3 389/1/3
f 398/1/3 390/1/3 397/1/3
f 399/1/3 393/1/3 392/1/3
f 399/1/3 392/1/3 391/1/3
f 400/1/3 393/1/3 399/1/3
f 402/2/3 395/2/3 394/2/3
f 403/2/3 395/2/3 402/2/3
f 404/2/3 395/2/3 403/2/3
f 406/2/3 403/2/3 402/2/3
f 406/2/3 402/2/3 401/2/3
f 407/2/3 403/2/3 406/2/3
f 408/2/3 403/2/3 407/2/3
f 409/1/3 393/1/3 400/1/3
f 412/2/3 406/2/3 405/2/3
f 412/2/3 407/2/3 406/2/3
f 413/2/3 407/2/3 412/2/3
f 414/2/3 407/2/3 413/2/3
f 415/1/3 397/1/3 388/1/3
f 418/1/3 410/1/3 409/1/3
f 418/1/3 409/1/3 400/1/3
f 419/1/3 410/1/3 418/1/3
f 422/2/3 412/2/3 411/2/3
f 422/2/3 413/2/3 412/2/3
f 423/2/3 413/2/3 422/2/3
f 424/2/3 413/2/3 423/2/3
f 425/1/3 416/1/3 415/1/3
f 425/1/3 415/1/3 388/1/3
f 426/1/3 416/1/3 425/1/3
f 427/1/3 416/1/3 426/1/3
f 428/1/3 420/1/3 419/1/3
f 428/1/3 419/1/3 418/1/3
f 428/1/3 418/1/3 417/1/3
f 429/1/3 420/1/3 428/1/3
f 430/1/3 420/1/3 429/1/3
f 433/2/3 423/2/3 422/2/3
f 433/2/3 422/2/3 421/2/3
f 434/2/3 423/2/3 433/2/3
f 435/2/3 423/2/3 434/2/3
f 436/1/3 427/1/3 426/1/3
f 436/1/3 428/1/3 427/1/3
f 436/1/3 429/1/3 428/1/3
f 437/1/3 429/1/3 436/1/3
f 438/2/3 431/2/3 430/2/3
f 438/1/3 429/1/3 437/1/3
f 438/2/3 430/2/3 429/2/3
f 439/2/3 431/2/3 438/2/3
f 442/2/3 434/2/3 433/2/3
f 442/2/3 433/2/3 432/2/3
f 443/2/3 434/2/3 442/2/3
f 444/2/3 434/2/3 443/2/3
f 445/2/3 440/2/3 439/2/3
f 445/2/3 439/2/3 438/2/3
f 445/2/3 438/2/3 437/2/3
f 446/2/3 440/2/3 445/2/3
f 447/2/3 440/2/3 446/2/3
f 448/2/3 443/2/3 442/2/3
f 448/2/3 442/2/3 441/2/3
f 449/2/3 443/2/3 448/2/3
f 450/2/3 443/2/3 449/2/3
f 451/2/3 447/2/3 446/2/3
f 451/2/3 449/2/3 448/2/3
f 451/2/3 448/2/3 447/2/3
f 452/2/3 449/2/3 451/2/3
f 453/2/3 449/2/3 452/2/3
f 454/2/3 449/2/3 453/2/3
f 455/2/3 449/2/3 454/2/3
f 456/2/3 449/2/3 455/2/3
f 457/2/3 453/2/3 452/2/3
f 458/2/3 453/2/3 457/2/3
f 459/2/3 455/2/3 454/2/3
f 460/2/3 455/2/3 459/2/3
f 461/2/4 462/2/4 466/2/4
f 466/2/4 462/2/4 467/2/4
f 463/2/4 464/2/4 468/2/4
f 468/2/4 464/2/4 469/2/4
f 466/2/4 467/2/4 472/2/4
f 469/2/4 470/2/4 472/2/4
f 468/2/4 469/2/4 472/2/4
f 467/2/4 468/2/4 472/2/4
f 465/2/4 466/2/4 472/2/4
f 472/2/4 470/2/4 473/2/4
f 473/2/4 470/2/4 474/2/4
f 474/2/4 470/2/4 475/2/4
f 471/2/4 472/2/4 478/2/4
f 472/2/4 473/2/4 478/2/4
f 478/2/4 473/2/4 479/2/4
f 479/2/4 473/2/4 480/2/4
f 480/2/4 473/2/4 481/2/4
f 474/2/4 475/2/4 482/2/4
f 475/2/4 476/2/4 482/2/4
f 482/2/4 476/2/4 483/2/4
f 483/2/4 476/2/4 484/2/4
f 477/1/4 478/1/4 487/1/4
f 478/1/4 479/1/4 487/1/4
f 487/1/4 479/1/4 488/1/4
f 488/1/4 479/1/4 489/1/4
f 479/2/4 480/2/4 490/2/4
f 489/1/4 479/1/4 490/1/4
f 490/2/4 480/2/4 491/2/4
f 491/2/4 480/2/4 492/2/4
f 484/2/4 485/2/4 493/2/4
f 483/2/4 484/2/4 493/2/4
f 493/2/4 485/2/4 494/2/4
f 494/2/4 485/2/4 495/2/4
f 486/1/4 487/1/4 497/1/4
f 487/1/4 488/1/4 497/1/4
f 497/1/4 488/1/4 498/1/4
f 490/1/4 491/1/4 499/1/4
f 489/1/4 490/1/4 499/1/4
f 499/1/4 491/1/4 500/1/4
f 500/1/4 491/1/4 501/1/4
f 501/1/4 491/1/4 502/1/4
f 495/2/4 496/2/4 503/2/4
f 494/2/4 495/2/4 503/2/4
f 503/2/4 496/2/4 504/2/4
f 504/2/4 496/2/4 505/2/4
f 500/1/4 501/1/4 507/1/4
f 507/1/4 501/1/4 508/1/4
f 505/2/4 506/2/4 509/2/4
f 504/2/4 505/2/4 509/2/4
f 509/2/4 506/2/4 510/2/4
f 510/2/4 506/2/4 511/2/4
f 511/2/4 512/2/4 513/2/4
f 510/2/4 511/2/4 513/2/4
f 513/2/4 512/2/4 514/2/4
f 514/2/4 512/2/4 515/2/4
f 486/1/4 497/1/4 517/1/4
f 500/1/4 507/1/4 520/1/4
f 515/2/4 516/2/4 521/2/4
f 514/2/4 515/2/4 521/2/4
f 521/2/4 516/2/4 522/2/4
f 522/2/4 516/2/4 523/2/4
f 517/1/4 518/1/4 525/1/4
f 486/1/4 517/1/4 525/1/4
f 525/1/4 518/1/4 526/1/4
f 526/1/4 518/1/4 527/1/4
f 519/1/4 520/1/4 528/1/4
f 520/1/4 507/1/4 529/1/4
f 528/1/4 520/1/4 529/1/4
f 529/1/4 507/1/4 530/1/4
f 523/2/4 524/2/4 531/2/4
f 522/2/4 523/2/4 531/2/4
f 531/2/4 524/2/4 532/2/4
f 526/1/4 527/1/4 534/1/4
f 527/1/4 528/1/4 534/1/4
f 528/1/4 529/1/4 534/1/4
f 534/1/4 529/1/4 535/1/4
f 532/2/4 533/2/4 536/2/4
f 536/2/4 533/2/4 537/2/4
f 538/1/4 539/1/4 543/1/4
f 543/1/4 539/1/4 544/1/4
f 544/1/4 539/1/4 545/1/4
f 545/1/4 539/1/4 546/1/4
f 540/2/4 541/2/4 549/2/4
f 549/2/4 541/2/4 550/2/4
f 542/1/4 543/1/4 551/1/4
f 543/1/4 544/1/4 551/1/4
f 551/1/4 544/1/4 552/1/4
f 546/1/4 547/1/4 553/1/4
f 545/1/4 546/1/4 553/1/4
f 553/1/4 547/1/4 554/1/4
f 548/2/4 549/2/4 556/2/4
f 556/2/4 549/2/4 557/2/4
f 557/2/4 549/2/4 558/2/4
f 556/2/4 557/2/4 560/2/4
f 555/2/4 556/2/4 560/2/4
f 560/2/4 557/2/4 561/2/4
f 561/2/4 557/2/4 562/2/4
f 554/1/4 547/1/4 563/1/4
f 559/2/4 560/2/4 566/2/4
f 560/2/4 561/2/4 566/2/4
f 566/2/4 561/2/4 567/2/4
f 567/2/4 561/2/4 568/2/4
f 542/1/4 551/1/4 569/1/4
f 563/1/4 564/1/4 572/1/4
f 554/1/4 563/1/4 572/1/4
f 572/1/4 564/1/4 573/1/4
f 565/2/4 566/2/4 576/2/4
f 566/2/4 567/2/4 576/2/4
f 576/2/4 567/2/4 577/2/4
f 577/2/4 567/2/4 578/2/4
f 569/1/4 570/1/4 579/1/4
f 542/1/4 569/1/4 579/1/4
f 579/1/4 570/1/4 580/1/4
f 580/1/4 570/1/4 581/1/4
f 573/1/4 574/1/4 582/1/4
f 572/1/4 573/1/4 582/1/4
f 571/1/4 572/1/4 582/1/4
f 582/1/4 574/1/4 583/1/4
f 583/1/4 574/1/4 584/1/4
f 576/2/4 577/2/4 587/2/4
f 575/2/4 576/2/4 587/2/4
f 587/2/4 577/2/4 588/2/4
f 588/2/4 577/2/4 589/2/4
f 580/1/4 581/1/4 590/1/4
f 581/1/4 582/1/4 590/1/4
f 582/1/4 583/1/4 590/1/4
f 590/1/4 583/1/4 591/1/4
f 584/2/4 585/2/4 592/2/4
f 591/1/4 583/1/4 592/1/4
f 583/2/4 584/2/4 592/2/4
f 592/2/4 585/2/4 593/2/4
f 587/2/4 588/2/4 596/2/4
f 586/2/4 587/2/4 596/2/4
f 596/2/4 588/2/4 597/2/4
f 597/2/4 588/2/4 598/2/4
f 593/2/4 594/2/4 599/2/4
f 592/2/4 593/2/4 599/2/4
f 591/2/4 592/2/4 599/2/4
f 599/2/4 594/2/4 600/2/4
f 600/2/4 594/2/4 601/2/4
f 596/2/4 597/2/4 602/2/4
f 595/2/4 596/2/4 602/2/4
f 602/2/4 597/2/4 603/2/4
f 603/2/4 597/2/4 604/2/4
f 600/2/4 601/2/4 605/2/4
f 602/2/4 603/2/4 605/2/4
f 601/2/4 602/2/4 605/2/4
f 605/2/4 603/2/4 606/2/4
f 606/2/4 603/2/4 607/2/4
f 607/2/4 603/2/4 608/2/4
f 608/2/4 603/2/4 609/2/4
f 609/2/4 603/2/4 610/2/4
f 606/2/4 607/2/4 611/2/4
f 607/3/4 608/3/4 612/3/4
f 611/2/4 607/2/4 612/2/4
f 608/2/4 609/2/4 613/2/4
f 612/3/4 608/3/4 613/3/4
f 613/2/4 609/2/4 614/2/4
f 612/3/4 613/3/4 615/3/4
f 615/3/4 613/3/4 616/3/4
f 621/1/5 618/1/5 617/1/5
f 622/1/5 618/1/5 621/1/5
f 623/1/5 620/1/5 619/1/5
f 624/1/5 620/1/5 623/1/5
f 633/1/5 626/1/5 625/1/5
f 634/1/5 626/1/5 633/1/5
f 635/1/5 628/1/5 627/1/5
f 636/1/5 628/1/5 635/1/5
f 637/1/5 630/1/5 629/1/5
f 638/1/5 630/1/5 637/1/5
f 639/1/5 632/1/5 631/1/5
f 640/1/5 632/1/5 639/1/5
f 649/1/5 642/1/5 641/1/5
f 650/1/5 642/1/5 649/1/5
f 651/1/5 644/1/5 643/1/5
f 652/1/5 644/1/5 651/1/5
f 653/1/5 646/1/5 645/1/5
f 654/1/5 646/1/5 653/1/5
f 655/1/5 648/1/5 647/1/5
f 656/1/5 648/1/5 655/1/5
f 661/1/5 658/1/5 657/1/5
f 662/1/5 658/1/5 661/1/5
f 663/1/5 660/1/5 659/1/5
f 664/1/5 660/1/5 663/1/5
f 669/2/5 666/2/5 665/2/5
f 670/2/5 666/2/5 669/2/5
f 671/2/5 668/2/5 667/2/5
f 672/2/5 668/2/5 671/2/5
f 677/2/5 674/2/5 673/2/5
f 678/2/5 674/2/5 677/2/5
f 679/2/5 676/2/5 675/2/5
f 680/2/5 676/2/5 679/2/5
f 684/2/5 682/2/5 681/2/5
f 685/2/5 682/2/5 684/2/5
f 686/2/5 684/2/5 683/2/5
f 687/2/5 684/2/5 686/2/5
f 690/3/5 689/3/5 688/3/5
f 691/3/5 689/3/5 690/3/5
f 693/3/5 692/3/5 691/3/5
f 694/3/5 692/3/5 693/3/5
f 699/2/5 696/2/5 695/2/5
f 700/2/5 696/2/5 699/2/5
f 701/2/5 698/2/5 697/2/5
f 702/2/5 698/2/5 701/2/5
f 707/2/5 704/2/5 703/2/5
f 708/2/5 704/2/5 707/2/5
f 709/2/5 706/2/5 705/2/5
f 710/2/5 706/2/5 709/2/5
f 715/2/5 712/2/5 711/2/5
f 716/2/5 712/2/5 715/2/5
f 717/2/5 714/2/5 713/2/5
f 718/2/5 714/2/5 717/2/5
f 723/2/5 720/2/5 719/2/5
f 724/2/5 720/2/5 723/2/5
f 725/2/5 722/2/5 721/2/5
f 726/2/5 722/2/5 725/2/5
f 731/2/5 728/2/5 727/2/5
f 732/2/5 728/2/5 731/2/5
f 733/2/5 730/2/5 729/2/5
f 734/2/5 730/2/5 733/2/5
f 739/2/5 736/2/5 735/2/5
f 740/2/5 736/2/5 739/2/5
f 741/2/5 738/2/5 737/2/5
f 742/2/5 738/2/5 741/2/5
f 747/2/5 744/2/5 743/2/5
f 748/2/5 744/2/5 747/2/5
f 749/2/5 746/2/5 745/2/5
f 750/2/5 746/2/5 749/2/5
f 755/2/5 752/2/5 751/2/5
f 756/2/5 752/2/5 755/2/5
f 757/2/5 754/2/5 753/2/5
f 758/2/5 754/2/5 757/2/5
f 759/1/6 760/1/6 763/1/6
f 763/1/6 760/1/6 764/1/6
f 761/1/6 762/1/6 765/1/6
f 765/1/6 762/1/6 766/1/6
f 767/1/6 768/1/6 775/1/6
f 775/1/6 768/1/6 776/1/6
f 769/1/6 770/1/6 777/1/6
f 777/1/6 770/1/6 778/1/6
f 771/1/6 772/1/6 779/1/6
f 779/1/6 772/1/6 780/1/6
f 773/1/6 774/1/6 781/1/6
f 781/1/6 774/1/6 782/1/6
f 783/1/6 784/1/6 787/1/6
f 787/1/6 784/1/6 788/1/6
f 785/1/6 786/1/6 789/1/6
f 789/1/6 786/1/6 790/1/6
f 791/1/6 792/1/6 795/1/6
f 795/1/6 792/1/6 796/1/6
f 793/1/6 794/1/6 797/1/6
f 797/1/6 794/1/6 798/1/6
f 799/1/6 800/1/6 803/1/6
f 803/1/6 800/1/6 804/1/6
f 801/1/6 802/1/6 805/1/6
f 805/1/6 802/1/6 806/1/6
f 807/1/6 808/1/6 811/1/6
f 811/1/6 808/1/6 812/1/6
f 809/1/6 810/1/6 813/1/6
f 813/1/6 810/1/6 814/1/6
f 815/2/6 816/2/6 819/2/6
f 819/2/6 816/2/6 820/2/6
f 817/2/6 818/2/6 821/2/6
f 821/2/6 818/2/6 822/2/6
f 823/2/6 824/2/6 827/2/6
f 827/2/6 824/2/6 828/2/6
f 825/2/6 826/2/6 829/2/6
f 829/2/6 826/2/6 830/2/6
f 831/3/6 832/3/6 833/3/6
f 833/3/6 832/3/6 834/3/6
f 834/3/6 835/3/6 836/3/6
f 836/3/6 835/3/6 837/3/6
f 838/2/6 839/2/6 841/2/6
f 841/2/6 839/2/6 842/2/6
f 840/2/6 841/2/6 843/2/6
f 843/2/6 841/2/6 844/2/6
f 845/2/6 846/2/6 849/2/6
f 849/2/6 846/2/6 850/2/6
f 847/2/6 848/2/6 851/2/6
f 851/2/6 848/2/6 852/2/6
f 853/2/6 854/2/6 857/2/6
f 857/2/6 854/2/6 858/2/6
f 855/2/6 856/2/6 859/2/6
f 859/2/6 856/2/6 860/2/6
f 861/2/6 862/2/6 865/2/6
f 865/2/6 862/2/6 866/2/6
f 863/2/6 864/2/6 867/2/6
f 867/2/6 864/2/6 868/2/6
f 869/2/6 870/2/6 873/2/6
f 873/2/6 870/2/6 874/2/6
f 871/2/6 872/2/6 875/2/6
f 875/2/6 872/2/6 876/2/6
f 877/2/6 878/2/6 881/2/6
f 881/2/6 878/2/6 882/2/6
f 879/2/6 880/2/6 883/2/6
f 883/2/6 880/2/6 884/2/6
f 885/2/6 886/2/6 889/2/6
f 889/2/6 886/2/6 890/2/6
f 887/2/6 888/2/6 891/2/6
f 891/2/6 888/2/6 892/2/6
f 893/2/6 894/2/6 897/2/6
f 897/2/6 894/2/6 898/2/6
f 895/2/6 896/2/6 899/2/6
f 899/2/6 896/2/6 900/2/6
f 901/2/6 902/2/6 905/2/6
f 905/2/6 902/2/6 906/2/6
f 903/2/6 904/2/6 907/2/6
f 907/2/6 904/2/6 908/2/6
f 909/2/6 910/2/6 913/2/6
f 913/2/6 910/2/6 914/2/6
f 911/2/6 912/2/6 915/2/6
f 915/2/6 912/2/6 916/2/6
