# MagicaVoxel @ Ephtracy

# material
mtllib BookOpen.mtl
usemtl palette

# normals
vn -1 0 0
vn 1 0 0
vn 0 0 1
vn 0 0 -1
vn 0 -1 0
vn 0 1 0

# texcoords
vt 0.419922 0.5
vt 0.958984 0.5
vt 0.986328 0.5

# verts
v -2 0 18
v -2 0 2
v -2 0 1
v -2 0 -1
v -2 0 -2
v -2 0 -18
v -2 1 18
v -2 1 2
v -2 1 1
v -2 1 -1
v -2 1 -2
v -2 1 -18
v -2 2 2
v -2 2 -2
v -1 1 17
v -1 1 2
v -1 1 -2
v -1 1 -17
v -1 2 17
v -1 2 14
v -1 2 2
v -1 2 -2
v -1 2 -14
v -1 2 -17
v -1 3 14
v -1 3 12
v -1 3 3
v -1 3 -3
v -1 3 -11
v -1 3 -14
v -1 4 12
v -1 4 3
v -1 4 -3
v -1 4 -11
v 19 1 17
v 19 1 2
v 19 1 -2
v 19 1 -17
v 19 2 17
v 19 2 14
v 19 2 2
v 19 2 -2
v 19 2 -14
v 19 2 -17
v 19 3 14
v 19 3 12
v 19 3 3
v 19 3 -3
v 19 3 -11
v 19 3 -14
v 19 4 12
v 19 4 3
v 19 4 -3
v 19 4 -11
v 20 0 18
v 20 0 2
v 20 0 1
v 20 0 -1
v 20 0 -2
v 20 0 -18
v 20 1 18
v 20 1 2
v 20 1 1
v 20 1 -1
v 20 1 -2
v 20 1 -18
v 20 2 2
v 20 2 -2
v -2 0 18
v -2 1 18
v 20 0 18
v 20 1 18
v -1 1 17
v -1 2 17
v 19 1 17
v 19 2 17
v -1 2 14
v -1 3 14
v 19 2 14
v 19 3 14
v -1 3 12
v -1 4 12
v 19 3 12
v 19 4 12
v -2 1 2
v -2 2 2
v -1 1 2
v -1 2 2
v 19 1 2
v 19 2 2
v 20 1 2
v 20 2 2
v -2 0 1
v -2 1 1
v 20 0 1
v 20 1 1
v -2 0 -2
v -2 1 -2
v 20 0 -2
v 20 1 -2
v -1 3 -3
v -1 4 -3
v 19 3 -3
v 19 4 -3
v -1 3 3
v -1 4 3
v 19 3 3
v 19 4 3
v -2 0 2
v -2 1 2
v 20 0 2
v 20 1 2
v -2 0 -1
v -2 1 -1
v 20 0 -1
v 20 1 -1
v -2 1 -2
v -2 2 -2
v -1 1 -2
v -1 2 -2
v 19 1 -2
v 19 2 -2
v 20 1 -2
v 20 2 -2
v -1 3 -11
v -1 4 -11
v 19 3 -11
v 19 4 -11
v -1 2 -14
v -1 3 -14
v 19 2 -14
v 19 3 -14
v -1 1 -17
v -1 2 -17
v 19 1 -17
v 19 2 -17
v -2 0 -18
v -2 1 -18
v 20 0 -18
v 20 1 -18
v -2 0 18
v 20 0 18
v -2 0 2
v 20 0 2
v -2 0 1
v 20 0 1
v -2 0 -1
v 20 0 -1
v -2 0 -2
v 20 0 -2
v -2 0 -18
v 20 0 -18
v -2 1 2
v 20 1 2
v -2 1 1
v 20 1 1
v -2 1 -1
v 20 1 -1
v -2 1 -2
v 20 1 -2
v -2 1 18
v 20 1 18
v -1 1 17
v 19 1 17
v -2 1 2
v -1 1 2
v 19 1 2
v 20 1 2
v -2 1 -2
v -1 1 -2
v 19 1 -2
v 20 1 -2
v -1 1 -17
v 19 1 -17
v -2 1 -18
v 20 1 -18
v -1 2 17
v 19 2 17
v -1 2 14
v 19 2 14
v -2 2 2
v -1 2 2
v 19 2 2
v 20 2 2
v -2 2 -2
v -1 2 -2
v 19 2 -2
v 20 2 -2
v -1 2 -14
v 19 2 -14
v -1 2 -17
v 19 2 -17
v -1 3 14
v 19 3 14
v -1 3 12
v 19 3 12
v -1 3 3
v 19 3 3
v -1 3 -3
v 19 3 -3
v -1 3 -11
v 19 3 -11
v -1 3 -14
v 19 3 -14
v -1 4 12
v 19 4 12
v -1 4 3
v 19 4 3
v -1 4 -3
v 19 4 -3
v -1 4 -11
v 19 4 -11

# faces
f 7/1/1 2/1/1 1/1/1
f 8/1/1 2/1/1 7/1/1
f 9/1/1 4/1/1 3/1/1
f 10/1/1 4/1/1 9/1/1
f 11/1/1 6/1/1 5/1/1
f 12/1/1 6/1/1 11/1/1
f 13/3/1 10/3/1 9/3/1
f 13/3/1 11/3/1 10/3/1
f 13/3/1 9/3/1 8/3/1
f 14/3/1 11/3/1 13/3/1
f 19/2/1 16/2/1 15/2/1
f 20/2/1 16/2/1 19/2/1
f 21/2/1 16/2/1 20/2/1
f 22/2/1 18/2/1 17/2/1
f 23/2/1 18/2/1 22/2/1
f 24/2/1 18/2/1 23/2/1
f 25/2/1 21/2/1 20/2/1
f 25/2/1 23/2/1 22/2/1
f 25/2/1 22/2/1 21/2/1
f 26/2/1 23/2/1 25/2/1
f 27/2/1 23/2/1 26/2/1
f 28/2/1 23/2/1 27/2/1
f 29/2/1 23/2/1 28/2/1
f 30/2/1 23/2/1 29/2/1
f 31/2/1 27/2/1 26/2/1
f 32/2/1 27/2/1 31/2/1
f 33/2/1 29/2/1 28/2/1
f 34/2/1 29/2/1 33/2/1
f 35/2/2 36/2/2 39/2/2
f 39/2/2 36/2/2 40/2/2
f 40/2/2 36/2/2 41/2/2
f 37/2/2 38/2/2 42/2/2
f 42/2/2 38/2/2 43/2/2
f 43/2/2 38/2/2 44/2/2
f 40/2/2 41/2/2 45/2/2
f 42/2/2 43/2/2 45/2/2
f 41/2/2 42/2/2 45/2/2
f 45/2/2 43/2/2 46/2/2
f 46/2/2 43/2/2 47/2/2
f 47/2/2 43/2/2 48/2/2
f 48/2/2 43/2/2 49/2/2
f 49/2/2 43/2/2 50/2/2
f 46/2/2 47/2/2 51/2/2
f 51/2/2 47/2/2 52/2/2
f 48/2/2 49/2/2 53/2/2
f 53/2/2 49/2/2 54/2/2
f 55/1/2 56/1/2 61/1/2
f 61/1/2 56/1/2 62/1/2
f 57/1/2 58/1/2 63/1/2
f 63/1/2 58/1/2 64/1/2
f 59/1/2 60/1/2 65/1/2
f 65/1/2 60/1/2 66/1/2
f 63/3/2 64/3/2 67/3/2
f 64/3/2 65/3/2 67/3/2
f 62/3/2 63/3/2 67/3/2
f 67/3/2 65/3/2 68/3/2
f 71/1/3 70/1/3 69/1/3
f 72/1/3 70/1/3 71/1/3
f 75/2/3 74/2/3 73/2/3
f 76/2/3 74/2/3 75/2/3
f 79/2/3 78/2/3 77/2/3
f 80/2/3 78/2/3 79/2/3
f 83/2/3 82/2/3 81/2/3
f 84/2/3 82/2/3 83/2/3
f 87/3/3 86/3/3 85/3/3
f 88/3/3 86/3/3 87/3/3
f 91/3/3 90/3/3 89/3/3
f 92/3/3 90/3/3 91/3/3
f 95/1/3 94/1/3 93/1/3
f 96/1/3 94/1/3 95/1/3
f 99/1/3 98/1/3 97/1/3
f 100/1/3 98/1/3 99/1/3
f 103/2/3 102/2/3 101/2/3
f 104/2/3 102/2/3 103/2/3
f 105/2/4 106/2/4 107/2/4
f 107/2/4 106/2/4 108/2/4
f 109/1/4 110/1/4 111/1/4
f 111/1/4 110/1/4 112/1/4
f 113/1/4 114/1/4 115/1/4
f 115/1/4 114/1/4 116/1/4
f 117/3/4 118/3/4 119/3/4
f 119/3/4 118/3/4 120/3/4
f 121/3/4 122/3/4 123/3/4
f 123/3/4 122/3/4 124/3/4
f 125/2/4 126/2/4 127/2/4
f 127/2/4 126/2/4 128/2/4
f 129/2/4 130/2/4 131/2/4
f 131/2/4 130/2/4 132/2/4
f 133/2/4 134/2/4 135/2/4
f 135/2/4 134/2/4 136/2/4
f 137/1/4 138/1/4 139/1/4
f 139/1/4 138/1/4 140/1/4
f 143/1/5 142/1/5 141/1/5
f 144/1/5 142/1/5 143/1/5
f 147/1/5 146/1/5 145/1/5
f 148/1/5 146/1/5 147/1/5
f 151/1/5 150/1/5 149/1/5
f 152/1/5 150/1/5 151/1/5
f 155/3/5 154/3/5 153/3/5
f 156/3/5 154/3/5 155/3/5
f 159/3/5 158/3/5 157/3/5
f 160/3/5 158/3/5 159/3/5
f 161/1/6 162/1/6 163/1/6
f 163/1/6 162/1/6 164/1/6
f 161/1/6 163/1/6 165/1/6
f 165/1/6 163/1/6 166/1/6
f 164/1/6 162/1/6 167/1/6
f 167/1/6 162/1/6 168/1/6
f 169/1/6 170/1/6 173/1/6
f 171/1/6 172/1/6 174/1/6
f 169/1/6 173/1/6 175/1/6
f 173/1/6 174/1/6 175/1/6
f 174/1/6 172/1/6 176/1/6
f 175/1/6 174/1/6 176/1/6
f 177/2/6 178/2/6 179/2/6
f 179/2/6 178/2/6 180/2/6
f 181/3/6 182/3/6 185/3/6
f 185/3/6 182/3/6 186/3/6
f 183/3/6 184/3/6 187/3/6
f 187/3/6 184/3/6 188/3/6
f 189/2/6 190/2/6 191/2/6
f 191/2/6 190/2/6 192/2/6
f 193/2/6 194/2/6 195/2/6
f 195/2/6 194/2/6 196/2/6
f 197/2/6 198/2/6 199/2/6
f 199/2/6 198/2/6 200/2/6
f 201/2/6 202/2/6 203/2/6
f 203/2/6 202/2/6 204/2/6
f 205/2/6 206/2/6 207/2/6
f 207/2/6 206/2/6 208/2/6
f 209/2/6 210/2/6 211/2/6
f 211/2/6 210/2/6 212/2/6
