# MagicaVoxel @ Ephtracy

# material
mtllib FinishLine.mtl
usemtl palette

# normals
vn -1 0 0
vn 1 0 0
vn 0 0 1
vn 0 0 -1
vn 0 -1 0
vn 0 1 0

# texcoords
vt 0.0214844 0.5
vt 0.419922 0.5
vt 0.841797 0.5
vt 0.955078 0.5
vt 0.958984 0.5

# verts
v -20 22 20
v -20 22 16
v -20 23 19
v -20 23 17
v -20 25 19
v -20 25 17
v -20 26 20
v -20 26 16
v -19 0 19
v -19 0 17
v -19 22 19
v -19 22 17
v 10 22 20
v 10 22 18
v 10 22 17
v 10 22 16
v 10 23 19
v 10 23 17
v 10 25 19
v 10 25 17
v 10 26 20
v 10 26 16
v 11 0 19
v 11 0 17
v 11 19 18
v 11 19 17
v 11 20 18
v 11 21 18
v 11 22 19
v 11 22 18
v -17 0 19
v -17 0 17
v -17 19 18
v -17 19 17
v -17 20 18
v -17 21 18
v -17 22 19
v -17 22 18
v -16 22 20
v -16 22 18
v -16 22 17
v -16 22 16
v -16 26 20
v -16 26 16
v 13 0 19
v 13 0 17
v 13 22 19
v 13 22 17
v 14 22 20
v 14 22 16
v 14 23 19
v 14 23 17
v 14 25 19
v 14 25 17
v 14 26 20
v 14 26 16
v -20 22 20
v -20 26 20
v -19 23 20
v -19 25 20
v -17 23 20
v -17 25 20
v -16 22 20
v -16 26 20
v 10 22 20
v 10 26 20
v 11 23 20
v 11 25 20
v 13 23 20
v 13 25 20
v 14 22 20
v 14 26 20
v -19 0 19
v -19 22 19
v -17 0 19
v -17 22 19
v 11 0 19
v 11 22 19
v 13 0 19
v 13 22 19
v -17 19 18
v -17 20 18
v -17 21 18
v -17 22 18
v -16 19 18
v -16 20 18
v -16 21 18
v -16 22 18
v -15 19 18
v -15 20 18
v -15 21 18
v -15 22 18
v -14 19 18
v -14 20 18
v -14 21 18
v -14 22 18
v -13 19 18
v -13 20 18
v -13 21 18
v -13 22 18
v -12 19 18
v -12 20 18
v -12 21 18
v -12 22 18
v -11 19 18
v -11 20 18
v -11 21 18
v -11 22 18
v -10 19 18
v -10 20 18
v -10 21 18
v -10 22 18
v -9 19 18
v -9 20 18
v -9 21 18
v -9 22 18
v -8 19 18
v -8 20 18
v -8 21 18
v -8 22 18
v -7 19 18
v -7 20 18
v -7 21 18
v -7 22 18
v -6 19 18
v -6 20 18
v -6 21 18
v -6 22 18
v -5 19 18
v -5 20 18
v -5 21 18
v -5 22 18
v -4 19 18
v -4 20 18
v -4 21 18
v -4 22 18
v -3 19 18
v -3 20 18
v -3 21 18
v -3 22 18
v -2 19 18
v -2 20 18
v -2 21 18
v -2 22 18
v -1 19 18
v -1 20 18
v -1 21 18
v -1 22 18
v 0 19 18
v 0 20 18
v 0 21 18
v 0 22 18
v 1 19 18
v 1 20 18
v 1 21 18
v 1 22 18
v 2 19 18
v 2 20 18
v 2 21 18
v 2 22 18
v 3 19 18
v 3 20 18
v 3 21 18
v 3 22 18
v 4 19 18
v 4 20 18
v 4 21 18
v 4 22 18
v 5 19 18
v 5 20 18
v 5 21 18
v 5 22 18
v 6 19 18
v 6 20 18
v 6 21 18
v 6 22 18
v 7 19 18
v 7 20 18
v 7 21 18
v 7 22 18
v 8 19 18
v 8 20 18
v 8 21 18
v 8 22 18
v 9 19 18
v 9 20 18
v 9 21 18
v 9 22 18
v 10 19 18
v 10 20 18
v 10 21 18
v 10 22 18
v 11 19 18
v 11 20 18
v 11 21 18
v 11 22 18
v -19 0 17
v -19 22 17
v -17 0 17
v -17 19 17
v -17 20 17
v -17 21 17
v -17 22 17
v -16 19 17
v -16 20 17
v -16 21 17
v -16 22 17
v -15 19 17
v -15 20 17
v -15 21 17
v -15 22 17
v -14 19 17
v -14 20 17
v -14 21 17
v -14 22 17
v -13 19 17
v -13 20 17
v -13 21 17
v -13 22 17
v -12 19 17
v -12 20 17
v -12 21 17
v -12 22 17
v -11 19 17
v -11 20 17
v -11 21 17
v -11 22 17
v -10 19 17
v -10 20 17
v -10 21 17
v -10 22 17
v -9 19 17
v -9 20 17
v -9 21 17
v -9 22 17
v -8 19 17
v -8 20 17
v -8 21 17
v -8 22 17
v -7 19 17
v -7 20 17
v -7 21 17
v -7 22 17
v -6 19 17
v -6 20 17
v -6 21 17
v -6 22 17
v -5 19 17
v -5 20 17
v -5 21 17
v -5 22 17
v -4 19 17
v -4 20 17
v -4 21 17
v -4 22 17
v -3 19 17
v -3 20 17
v -3 21 17
v -3 22 17
v -2 19 17
v -2 20 17
v -2 21 17
v -2 22 17
v -1 19 17
v -1 20 17
v -1 21 17
v -1 22 17
v 0 19 17
v 0 20 17
v 0 21 17
v 0 22 17
v 1 19 17
v 1 20 17
v 1 21 17
v 1 22 17
v 2 19 17
v 2 20 17
v 2 21 17
v 2 22 17
v 3 19 17
v 3 20 17
v 3 21 17
v 3 22 17
v 4 19 17
v 4 20 17
v 4 21 17
v 4 22 17
v 5 19 17
v 5 20 17
v 5 21 17
v 5 22 17
v 6 19 17
v 6 20 17
v 6 21 17
v 6 22 17
v 7 19 17
v 7 20 17
v 7 21 17
v 7 22 17
v 8 19 17
v 8 20 17
v 8 21 17
v 8 22 17
v 9 19 17
v 9 20 17
v 9 21 17
v 9 22 17
v 10 19 17
v 10 20 17
v 10 21 17
v 10 22 17
v 11 0 17
v 11 19 17
v 11 20 17
v 11 21 17
v 11 22 17
v 13 0 17
v 13 22 17
v -20 22 16
v -20 26 16
v -19 23 16
v -19 25 16
v -17 23 16
v -17 25 16
v -16 22 16
v -16 26 16
v 10 22 16
v 10 26 16
v 11 23 16
v 11 25 16
v 13 23 16
v 13 25 16
v 14 22 16
v 14 26 16
v -19 0 19
v -17 0 19
v 11 0 19
v 13 0 19
v -19 0 17
v -17 0 17
v 11 0 17
v 13 0 17
v -17 19 18
v -16 19 18
v -15 19 18
v -14 19 18
v -13 19 18
v -12 19 18
v -11 19 18
v -10 19 18
v -9 19 18
v -8 19 18
v -7 19 18
v -6 19 18
v -5 19 18
v -4 19 18
v -3 19 18
v -2 19 18
v -1 19 18
v 0 19 18
v 1 19 18
v 2 19 18
v 3 19 18
v 4 19 18
v 5 19 18
v 6 19 18
v 7 19 18
v 8 19 18
v 9 19 18
v 10 19 18
v 11 19 18
v -17 19 17
v -16 19 17
v -15 19 17
v -14 19 17
v -13 19 17
v -12 19 17
v -11 19 17
v -10 19 17
v -9 19 17
v -8 19 17
v -7 19 17
v -6 19 17
v -5 19 17
v -4 19 17
v -3 19 17
v -2 19 17
v -1 19 17
v 0 19 17
v 1 19 17
v 2 19 17
v 3 19 17
v 4 19 17
v 5 19 17
v 6 19 17
v 7 19 17
v 8 19 17
v 9 19 17
v 10 19 17
v 11 19 17
v -20 22 20
v -16 22 20
v 10 22 20
v 14 22 20
v -19 22 19
v -17 22 19
v 11 22 19
v 13 22 19
v -17 22 18
v -16 22 18
v 10 22 18
v 11 22 18
v -19 22 17
v -17 22 17
v -16 22 17
v 10 22 17
v 11 22 17
v 13 22 17
v -20 22 16
v -16 22 16
v 10 22 16
v 14 22 16
v -16 22 18
v -15 22 18
v -14 22 18
v -13 22 18
v -12 22 18
v -11 22 18
v -10 22 18
v -9 22 18
v -8 22 18
v -7 22 18
v -6 22 18
v -5 22 18
v -4 22 18
v -3 22 18
v -2 22 18
v -1 22 18
v 0 22 18
v 1 22 18
v 2 22 18
v 3 22 18
v 4 22 18
v 5 22 18
v 6 22 18
v 7 22 18
v 8 22 18
v 9 22 18
v 10 22 18
v -16 22 17
v -15 22 17
v -14 22 17
v -13 22 17
v -12 22 17
v -11 22 17
v -10 22 17
v -9 22 17
v -8 22 17
v -7 22 17
v -6 22 17
v -5 22 17
v -4 22 17
v -3 22 17
v -2 22 17
v -1 22 17
v 0 22 17
v 1 22 17
v 2 22 17
v 3 22 17
v 4 22 17
v 5 22 17
v 6 22 17
v 7 22 17
v 8 22 17
v 9 22 17
v 10 22 17
v -20 26 20
v -16 26 20
v 10 26 20
v 14 26 20
v -19 26 19
v -17 26 19
v 11 26 19
v 13 26 19
v -19 26 17
v -17 26 17
v 11 26 17
v 13 26 17
v -20 26 16
v -16 26 16
v 10 26 16
v 14 26 16

# faces
f 3/1/1 2/1/1 1/1/1
f 4/1/1 2/1/1 3/1/1
f 5/1/1 3/1/1 1/1/1
f 5/3/1 4/3/1 3/3/1
f 6/1/1 2/1/1 4/1/1
f 6/3/1 4/3/1 5/3/1
f 7/1/1 5/1/1 1/1/1
f 7/1/1 6/1/1 5/1/1
f 8/1/1 2/1/1 6/1/1
f 8/1/1 6/1/1 7/1/1
f 11/2/1 10/2/1 9/2/1
f 12/2/1 10/2/1 11/2/1
f 17/1/1 14/1/1 13/1/1
f 17/1/1 16/1/1 15/1/1
f 17/1/1 15/1/1 14/1/1
f 18/1/1 16/1/1 17/1/1
f 19/1/1 17/1/1 13/1/1
f 19/3/1 18/3/1 17/3/1
f 20/1/1 16/1/1 18/1/1
f 20/3/1 18/3/1 19/3/1
f 21/1/1 19/1/1 13/1/1
f 21/1/1 20/1/1 19/1/1
f 22/1/1 16/1/1 20/1/1
f 22/1/1 20/1/1 21/1/1
f 25/2/1 24/2/1 23/2/1
f 26/2/1 24/2/1 25/2/1
f 27/2/1 25/2/1 23/2/1
f 28/2/1 27/2/1 23/2/1
f 29/2/1 28/2/1 23/2/1
f 30/2/1 28/2/1 29/2/1
f 31/2/2 32/2/2 33/2/2
f 33/2/2 32/2/2 34/2/2
f 31/2/2 33/2/2 35/2/2
f 31/2/2 35/2/2 36/2/2
f 31/2/2 36/2/2 37/2/2
f 37/2/2 36/2/2 38/2/2
f 39/1/2 40/1/2 43/1/2
f 41/1/2 42/1/2 43/1/2
f 40/1/2 41/1/2 43/1/2
f 43/1/2 42/1/2 44/1/2
f 45/2/2 46/2/2 47/2/2
f 47/2/2 46/2/2 48/2/2
f 49/1/2 50/1/2 51/1/2
f 51/1/2 50/1/2 52/1/2
f 49/1/2 51/1/2 53/1/2
f 51/3/2 52/3/2 53/3/2
f 52/1/2 50/1/2 54/1/2
f 53/3/2 52/3/2 54/3/2
f 49/1/2 53/1/2 55/1/2
f 53/1/2 54/1/2 55/1/2
f 54/1/2 50/1/2 56/1/2
f 55/1/2 54/1/2 56/1/2
f 59/1/3 58/1/3 57/1/3
f 60/1/3 58/1/3 59/1/3
f 61/1/3 59/1/3 57/1/3
f 61/3/3 60/3/3 59/3/3
f 62/1/3 58/1/3 60/1/3
f 62/3/3 60/3/3 61/3/3
f 63/1/3 61/1/3 57/1/3
f 63/1/3 62/1/3 61/1/3
f 64/1/3 58/1/3 62/1/3
f 64/1/3 62/1/3 63/1/3
f 67/1/3 66/1/3 65/1/3
f 68/1/3 66/1/3 67/1/3
f 69/1/3 67/1/3 65/1/3
f 69/3/3 68/3/3 67/3/3
f 70/1/3 66/1/3 68/1/3
f 70/3/3 68/3/3 69/3/3
f 71/1/3 69/1/3 65/1/3
f 71/1/3 70/1/3 69/1/3
f 72/1/3 66/1/3 70/1/3
f 72/1/3 70/1/3 71/1/3
f 75/2/3 74/2/3 73/2/3
f 76/2/3 74/2/3 75/2/3
f 79/2/3 78/2/3 77/2/3
f 80/2/3 78/2/3 79/2/3
f 85/5/3 82/5/3 81/5/3
f 86/4/3 83/4/3 82/4/3
f 86/5/3 82/5/3 85/5/3
f 87/5/3 84/5/3 83/5/3
f 87/4/3 83/4/3 86/4/3
f 88/5/3 84/5/3 87/5/3
f 89/4/3 86/4/3 85/4/3
f 90/5/3 87/5/3 86/5/3
f 90/4/3 86/4/3 89/4/3
f 91/4/3 88/4/3 87/4/3
f 91/5/3 87/5/3 90/5/3
f 92/4/3 88/4/3 91/4/3
f 93/5/3 90/5/3 89/5/3
f 94/4/3 91/4/3 90/4/3
f 94/5/3 90/5/3 93/5/3
f 95/5/3 92/5/3 91/5/3
f 95/4/3 91/4/3 94/4/3
f 96/5/3 92/5/3 95/5/3
f 97/4/3 94/4/3 93/4/3
f 98/5/3 95/5/3 94/5/3
f 98/4/3 94/4/3 97/4/3
f 99/4/3 96/4/3 95/4/3
f 99/5/3 95/5/3 98/5/3
f 100/4/3 96/4/3 99/4/3
f 101/5/3 98/5/3 97/5/3
f 102/4/3 99/4/3 98/4/3
f 102/5/3 98/5/3 101/5/3
f 103/5/3 100/5/3 99/5/3
f 103/4/3 99/4/3 102/4/3
f 104/5/3 100/5/3 103/5/3
f 105/4/3 102/4/3 101/4/3
f 106/5/3 103/5/3 102/5/3
f 106/4/3 102/4/3 105/4/3
f 107/4/3 104/4/3 103/4/3
f 107/5/3 103/5/3 106/5/3
f 108/4/3 104/4/3 107/4/3
f 109/5/3 106/5/3 105/5/3
f 110/4/3 107/4/3 106/4/3
f 110/5/3 106/5/3 109/5/3
f 111/5/3 108/5/3 107/5/3
f 111/4/3 107/4/3 110/4/3
f 112/5/3 108/5/3 111/5/3
f 113/4/3 110/4/3 109/4/3
f 114/5/3 111/5/3 110/5/3
f 114/4/3 110/4/3 113/4/3
f 115/4/3 112/4/3 111/4/3
f 115/5/3 111/5/3 114/5/3
f 116/4/3 112/4/3 115/4/3
f 117/5/3 114/5/3 113/5/3
f 118/4/3 115/4/3 114/4/3
f 118/5/3 114/5/3 117/5/3
f 119/5/3 116/5/3 115/5/3
f 119/4/3 115/4/3 118/4/3
f 120/5/3 116/5/3 119/5/3
f 121/4/3 118/4/3 117/4/3
f 122/5/3 119/5/3 118/5/3
f 122/4/3 118/4/3 121/4/3
f 123/4/3 120/4/3 119/4/3
f 123/5/3 119/5/3 122/5/3
f 124/4/3 120/4/3 123/4/3
f 125/5/3 122/5/3 121/5/3
f 126/4/3 123/4/3 122/4/3
f 126/5/3 122/5/3 125/5/3
f 127/5/3 124/5/3 123/5/3
f 127/4/3 123/4/3 126/4/3
f 128/5/3 124/5/3 127/5/3
f 129/4/3 126/4/3 125/4/3
f 130/5/3 127/5/3 126/5/3
f 130/4/3 126/4/3 129/4/3
f 131/4/3 128/4/3 127/4/3
f 131/5/3 127/5/3 130/5/3
f 132/4/3 128/4/3 131/4/3
f 133/5/3 130/5/3 129/5/3
f 134/4/3 131/4/3 130/4/3
f 134/5/3 130/5/3 133/5/3
f 135/5/3 132/5/3 131/5/3
f 135/4/3 131/4/3 134/4/3
f 136/5/3 132/5/3 135/5/3
f 137/4/3 134/4/3 133/4/3
f 138/5/3 135/5/3 134/5/3
f 138/4/3 134/4/3 137/4/3
f 139/4/3 136/4/3 135/4/3
f 139/5/3 135/5/3 138/5/3
f 140/4/3 136/4/3 139/4/3
f 141/5/3 138/5/3 137/5/3
f 142/4/3 139/4/3 138/4/3
f 142/5/3 138/5/3 141/5/3
f 143/5/3 140/5/3 139/5/3
f 143/4/3 139/4/3 142/4/3
f 144/5/3 140/5/3 143/5/3
f 145/4/3 142/4/3 141/4/3
f 146/5/3 143/5/3 142/5/3
f 146/4/3 142/4/3 145/4/3
f 147/4/3 144/4/3 143/4/3
f 147/5/3 143/5/3 146/5/3
f 148/4/3 144/4/3 147/4/3
f 149/5/3 146/5/3 145/5/3
f 150/4/3 147/4/3 146/4/3
f 150/5/3 146/5/3 149/5/3
f 151/5/3 148/5/3 147/5/3
f 151/4/3 147/4/3 150/4/3
f 152/5/3 148/5/3 151/5/3
f 153/4/3 150/4/3 149/4/3
f 154/5/3 151/5/3 150/5/3
f 154/4/3 150/4/3 153/4/3
f 155/4/3 152/4/3 151/4/3
f 155/5/3 151/5/3 154/5/3
f 156/4/3 152/4/3 155/4/3
f 157/5/3 154/5/3 153/5/3
f 158/4/3 155/4/3 154/4/3
f 158/5/3 154/5/3 157/5/3
f 159/5/3 156/5/3 155/5/3
f 159/4/3 155/4/3 158/4/3
f 160/5/3 156/5/3 159/5/3
f 161/4/3 158/4/3 157/4/3
f 162/5/3 159/5/3 158/5/3
f 162/4/3 158/4/3 161/4/3
f 163/4/3 160/4/3 159/4/3
f 163/5/3 159/5/3 162/5/3
f 164/4/3 160/4/3 163/4/3
f 165/5/3 162/5/3 161/5/3
f 166/4/3 163/4/3 162/4/3
f 166/5/3 162/5/3 165/5/3
f 167/5/3 164/5/3 163/5/3
f 167/4/3 163/4/3 166/4/3
f 168/5/3 164/5/3 167/5/3
f 169/4/3 166/4/3 165/4/3
f 170/5/3 167/5/3 166/5/3
f 170/4/3 166/4/3 169/4/3
f 171/4/3 168/4/3 167/4/3
f 171/5/3 167/5/3 170/5/3
f 172/4/3 168/4/3 171/4/3
f 173/5/3 170/5/3 169/5/3
f 174/4/3 171/4/3 170/4/3
f 174/5/3 170/5/3 173/5/3
f 175/5/3 172/5/3 171/5/3
f 175/4/3 171/4/3 174/4/3
f 176/5/3 172/5/3 175/5/3
f 177/4/3 174/4/3 173/4/3
f 178/5/3 175/5/3 174/5/3
f 178/4/3 174/4/3 177/4/3
f 179/4/3 176/4/3 175/4/3
f 179/5/3 175/5/3 178/5/3
f 180/4/3 176/4/3 179/4/3
f 181/5/3 178/5/3 177/5/3
f 182/4/3 179/4/3 178/4/3
f 182/5/3 178/5/3 181/5/3
f 183/5/3 180/5/3 179/5/3
f 183/4/3 179/4/3 182/4/3
f 184/5/3 180/5/3 183/5/3
f 185/4/3 182/4/3 181/4/3
f 186/5/3 183/5/3 182/5/3
f 186/4/3 182/4/3 185/4/3
f 187/4/3 184/4/3 183/4/3
f 187/5/3 183/5/3 186/5/3
f 188/4/3 184/4/3 187/4/3
f 189/5/3 186/5/3 185/5/3
f 190/4/3 187/4/3 186/4/3
f 190/5/3 186/5/3 189/5/3
f 191/5/3 188/5/3 187/5/3
f 191/4/3 187/4/3 190/4/3
f 192/5/3 188/5/3 191/5/3
f 193/4/3 190/4/3 189/4/3
f 194/5/3 191/5/3 190/5/3
f 194/4/3 190/4/3 193/4/3
f 195/4/3 192/4/3 191/4/3
f 195/5/3 191/5/3 194/5/3
f 196/4/3 192/4/3 195/4/3
f 197/2/4 198/2/4 199/2/4
f 199/2/4 198/2/4 200/2/4
f 200/2/4 198/2/4 201/2/4
f 201/2/4 198/2/4 202/2/4
f 202/2/4 198/2/4 203/2/4
f 200/5/4 201/5/4 204/5/4
f 201/4/4 202/4/4 205/4/4
f 204/5/4 201/5/4 205/5/4
f 202/5/4 203/5/4 206/5/4
f 205/4/4 202/4/4 206/4/4
f 206/5/4 203/5/4 207/5/4
f 204/4/4 205/4/4 208/4/4
f 205/5/4 206/5/4 209/5/4
f 208/4/4 205/4/4 209/4/4
f 206/4/4 207/4/4 210/4/4
f 209/5/4 206/5/4 210/5/4
f 210/4/4 207/4/4 211/4/4
f 208/5/4 209/5/4 212/5/4
f 209/4/4 210/4/4 213/4/4
f 212/5/4 209/5/4 213/5/4
f 210/5/4 211/5/4 214/5/4
f 213/4/4 210/4/4 214/4/4
f 214/5/4 211/5/4 215/5/4
f 212/4/4 213/4/4 216/4/4
f 213/5/4 214/5/4 217/5/4
f 216/4/4 213/4/4 217/4/4
f 214/4/4 215/4/4 218/4/4
f 217/5/4 214/5/4 218/5/4
f 218/4/4 215/4/4 219/4/4
f 216/5/4 217/5/4 220/5/4
f 217/4/4 218/4/4 221/4/4
f 220/5/4 217/5/4 221/5/4
f 218/5/4 219/5/4 222/5/4
f 221/4/4 218/4/4 222/4/4
f 222/5/4 219/5/4 223/5/4
f 220/4/4 221/4/4 224/4/4
f 221/5/4 222/5/4 225/5/4
f 224/4/4 221/4/4 225/4/4
f 222/4/4 223/4/4 226/4/4
f 225/5/4 222/5/4 226/5/4
f 226/4/4 223/4/4 227/4/4
f 224/5/4 225/5/4 228/5/4
f 225/4/4 226/4/4 229/4/4
f 228/5/4 225/5/4 229/5/4
f 226/5/4 227/5/4 230/5/4
f 229/4/4 226/4/4 230/4/4
f 230/5/4 227/5/4 231/5/4
f 228/4/4 229/4/4 232/4/4
f 229/5/4 230/5/4 233/5/4
f 232/4/4 229/4/4 233/4/4
f 230/4/4 231/4/4 234/4/4
f 233/5/4 230/5/4 234/5/4
f 234/4/4 231/4/4 235/4/4
f 232/5/4 233/5/4 236/5/4
f 233/4/4 234/4/4 237/4/4
f 236/5/4 233/5/4 237/5/4
f 234/5/4 235/5/4 238/5/4
f 237/4/4 234/4/4 238/4/4
f 238/5/4 235/5/4 239/5/4
f 236/4/4 237/4/4 240/4/4
f 237/5/4 238/5/4 241/5/4
f 240/4/4 237/4/4 241/4/4
f 238/4/4 239/4/4 242/4/4
f 241/5/4 238/5/4 242/5/4
f 242/4/4 239/4/4 243/4/4
f 240/5/4 241/5/4 244/5/4
f 241/4/4 242/4/4 245/4/4
f 244/5/4 241/5/4 245/5/4
f 242/5/4 243/5/4 246/5/4
f 245/4/4 242/4/4 246/4/4
f 246/5/4 243/5/4 247/5/4
f 244/4/4 245/4/4 248/4/4
f 245/5/4 246/5/4 249/5/4
f 248/4/4 245/4/4 249/4/4
f 246/4/4 247/4/4 250/4/4
f 249/5/4 246/5/4 250/5/4
f 250/4/4 247/4/4 251/4/4
f 248/5/4 249/5/4 252/5/4
f 249/4/4 250/4/4 253/4/4
f 252/5/4 249/5/4 253/5/4
f 250/5/4 251/5/4 254/5/4
f 253/4/4 250/4/4 254/4/4
f 254/5/4 251/5/4 255/5/4
f 252/4/4 253/4/4 256/4/4
f 253/5/4 254/5/4 257/5/4
f 256/4/4 253/4/4 257/4/4
f 254/4/4 255/4/4 258/4/4
f 257/5/4 254/5/4 258/5/4
f 258/4/4 255/4/4 259/4/4
f 256/5/4 257/5/4 260/5/4
f 257/4/4 258/4/4 261/4/4
f 260/5/4 257/5/4 261/5/4
f 258/5/4 259/5/4 262/5/4
f 261/4/4 258/4/4 262/4/4
f 262/5/4 259/5/4 263/5/4
f 260/4/4 261/4/4 264/4/4
f 261/5/4 262/5/4 265/5/4
f 264/4/4 261/4/4 265/4/4
f 262/4/4 263/4/4 266/4/4
f 265/5/4 262/5/4 266/5/4
f 266/4/4 263/4/4 267/4/4
f 264/5/4 265/5/4 268/5/4
f 265/4/4 266/4/4 269/4/4
f 268/5/4 265/5/4 269/5/4
f 266/5/4 267/5/4 270/5/4
f 269/4/4 266/4/4 270/4/4
f 270/5/4 267/5/4 271/5/4
f 268/4/4 269/4/4 272/4/4
f 269/5/4 270/5/4 273/5/4
f 272/4/4 269/4/4 273/4/4
f 270/4/4 271/4/4 274/4/4
f 273/5/4 270/5/4 274/5/4
f 274/4/4 271/4/4 275/4/4
f 272/5/4 273/5/4 276/5/4
f 273/4/4 274/4/4 277/4/4
f 276/5/4 273/5/4 277/5/4
f 274/5/4 275/5/4 278/5/4
f 277/4/4 274/4/4 278/4/4
f 278/5/4 275/5/4 279/5/4
f 276/4/4 277/4/4 280/4/4
f 277/5/4 278/5/4 281/5/4
f 280/4/4 277/4/4 281/4/4
f 278/4/4 279/4/4 282/4/4
f 281/5/4 278/5/4 282/5/4
f 282/4/4 279/4/4 283/4/4
f 280/5/4 281/5/4 284/5/4
f 281/4/4 282/4/4 285/4/4
f 284/5/4 281/5/4 285/5/4
f 282/5/4 283/5/4 286/5/4
f 285/4/4 282/4/4 286/4/4
f 286/5/4 283/5/4 287/5/4
f 284/4/4 285/4/4 288/4/4
f 285/5/4 286/5/4 289/5/4
f 288/4/4 285/4/4 289/4/4
f 286/4/4 287/4/4 290/4/4
f 289/5/4 286/5/4 290/5/4
f 290/4/4 287/4/4 291/4/4
f 288/5/4 289/5/4 292/5/4
f 289/4/4 290/4/4 293/4/4
f 292/5/4 289/5/4 293/5/4
f 290/5/4 291/5/4 294/5/4
f 293/4/4 290/4/4 294/4/4
f 294/5/4 291/5/4 295/5/4
f 292/4/4 293/4/4 296/4/4
f 293/5/4 294/5/4 297/5/4
f 296/4/4 293/4/4 297/4/4
f 294/4/4 295/4/4 298/4/4
f 297/5/4 294/5/4 298/5/4
f 298/4/4 295/4/4 299/4/4
f 296/5/4 297/5/4 300/5/4
f 297/4/4 298/4/4 301/4/4
f 300/5/4 297/5/4 301/5/4
f 298/5/4 299/5/4 302/5/4
f 301/4/4 298/4/4 302/4/4
f 302/5/4 299/5/4 303/5/4
f 300/4/4 301/4/4 304/4/4
f 301/5/4 302/5/4 305/5/4
f 304/4/4 301/4/4 305/4/4
f 302/4/4 303/4/4 306/4/4
f 305/5/4 302/5/4 306/5/4
f 306/4/4 303/4/4 307/4/4
f 304/5/4 305/5/4 308/5/4
f 305/4/4 306/4/4 309/4/4
f 308/5/4 305/5/4 309/5/4
f 306/5/4 307/5/4 310/5/4
f 309/4/4 306/4/4 310/4/4
f 310/5/4 307/5/4 311/5/4
f 308/4/4 309/4/4 313/4/4
f 309/5/4 310/5/4 314/5/4
f 313/4/4 309/4/4 314/4/4
f 310/4/4 311/4/4 315/4/4
f 314/5/4 310/5/4 315/5/4
f 315/4/4 311/4/4 316/4/4
f 312/2/4 313/2/4 317/2/4
f 313/2/4 314/2/4 317/2/4
f 315/2/4 316/2/4 317/2/4
f 314/2/4 315/2/4 317/2/4
f 317/2/4 316/2/4 318/2/4
f 319/1/4 320/1/4 321/1/4
f 321/1/4 320/1/4 322/1/4
f 319/1/4 321/1/4 323/1/4
f 321/3/4 322/3/4 323/3/4
f 322/1/4 320/1/4 324/1/4
f 323/3/4 322/3/4 324/3/4
f 319/1/4 323/1/4 325/1/4
f 323/1/4 324/1/4 325/1/4
f 324/1/4 320/1/4 326/1/4
f 325/1/4 324/1/4 326/1/4
f 327/1/4 328/1/4 329/1/4
f 329/1/4 328/1/4 330/1/4
f 327/1/4 329/1/4 331/1/4
f 329/3/4 330/3/4 331/3/4
f 330/1/4 328/1/4 332/1/4
f 331/3/4 330/3/4 332/3/4
f 327/1/4 331/1/4 333/1/4
f 331/1/4 332/1/4 333/1/4
f 332/1/4 328/1/4 334/1/4
f 333/1/4 332/1/4 334/1/4
f 339/2/5 336/2/5 335/2/5
f 340/2/5 336/2/5 339/2/5
f 341/2/5 338/2/5 337/2/5
f 342/2/5 338/2/5 341/2/5
f 372/5/5 344/5/5 343/5/5
f 373/4/5 345/4/5 344/4/5
f 373/5/5 344/5/5 372/5/5
f 374/5/5 346/5/5 345/5/5
f 374/4/5 345/4/5 373/4/5
f 375/4/5 347/4/5 346/4/5
f 375/5/5 346/5/5 374/5/5
f 376/5/5 348/5/5 347/5/5
f 376/4/5 347/4/5 375/4/5
f 377/4/5 349/4/5 348/4/5
f 377/5/5 348/5/5 376/5/5
f 378/5/5 350/5/5 349/5/5
f 378/4/5 349/4/5 377/4/5
f 379/4/5 351/4/5 350/4/5
f 379/5/5 350/5/5 378/5/5
f 380/5/5 352/5/5 351/5/5
f 380/4/5 351/4/5 379/4/5
f 381/4/5 353/4/5 352/4/5
f 381/5/5 352/5/5 380/5/5
f 382/5/5 354/5/5 353/5/5
f 382/4/5 353/4/5 381/4/5
f 383/4/5 355/4/5 354/4/5
f 383/5/5 354/5/5 382/5/5
f 384/5/5 356/5/5 355/5/5
f 384/4/5 355/4/5 383/4/5
f 385/4/5 357/4/5 356/4/5
f 385/5/5 356/5/5 384/5/5
f 386/5/5 358/5/5 357/5/5
f 386/4/5 357/4/5 385/4/5
f 387/4/5 359/4/5 358/4/5
f 387/5/5 358/5/5 386/5/5
f 388/5/5 360/5/5 359/5/5
f 388/4/5 359/4/5 387/4/5
f 389/4/5 361/4/5 360/4/5
f 389/5/5 360/5/5 388/5/5
f 390/5/5 362/5/5 361/5/5
f 390/4/5 361/4/5 389/4/5
f 391/4/5 363/4/5 362/4/5
f 391/5/5 362/5/5 390/5/5
f 392/5/5 364/5/5 363/5/5
f 392/4/5 363/4/5 391/4/5
f 393/4/5 365/4/5 364/4/5
f 393/5/5 364/5/5 392/5/5
f 394/5/5 366/5/5 365/5/5
f 394/4/5 365/4/5 393/4/5
f 395/4/5 367/4/5 366/4/5
f 395/5/5 366/5/5 394/5/5
f 396/5/5 368/5/5 367/5/5
f 396/4/5 367/4/5 395/4/5
f 397/4/5 369/4/5 368/4/5
f 397/5/5 368/5/5 396/5/5
f 398/5/5 370/5/5 369/5/5
f 398/4/5 369/4/5 397/4/5
f 399/4/5 371/4/5 370/4/5
f 399/5/5 370/5/5 398/5/5
f 400/4/5 371/4/5 399/4/5
f 405/1/5 402/1/5 401/1/5
f 406/1/5 402/1/5 405/1/5
f 407/1/5 404/1/5 403/1/5
f 408/1/5 404/1/5 407/1/5
f 409/1/5 402/1/5 406/1/5
f 410/1/5 402/1/5 409/1/5
f 411/1/5 407/1/5 403/1/5
f 412/1/5 407/1/5 411/1/5
f 413/1/5 405/1/5 401/1/5
f 418/1/5 404/1/5 408/1/5
f 419/1/5 415/1/5 414/1/5
f 419/1/5 413/1/5 401/1/5
f 419/1/5 414/1/5 413/1/5
f 420/1/5 415/1/5 419/1/5
f 421/1/5 417/1/5 416/1/5
f 421/1/5 418/1/5 417/1/5
f 422/1/5 404/1/5 418/1/5
f 422/1/5 418/1/5 421/1/5
f 423/4/6 424/4/6 450/4/6
f 424/5/6 425/5/6 451/5/6
f 450/4/6 424/4/6 451/4/6
f 425/4/6 426/4/6 452/4/6
f 451/5/6 425/5/6 452/5/6
f 426/5/6 427/5/6 453/5/6
f 452/4/6 426/4/6 453/4/6
f 427/4/6 428/4/6 454/4/6
f 453/5/6 427/5/6 454/5/6
f 428/5/6 429/5/6 455/5/6
f 454/4/6 428/4/6 455/4/6
f 429/4/6 430/4/6 456/4/6
f 455/5/6 429/5/6 456/5/6
f 430/5/6 431/5/6 457/5/6
f 456/4/6 430/4/6 457/4/6
f 431/4/6 432/4/6 458/4/6
f 457/5/6 431/5/6 458/5/6
f 432/5/6 433/5/6 459/5/6
f 458/4/6 432/4/6 459/4/6
f 433/4/6 434/4/6 460/4/6
f 459/5/6 433/5/6 460/5/6
f 434/5/6 435/5/6 461/5/6
f 460/4/6 434/4/6 461/4/6
f 435/4/6 436/4/6 462/4/6
f 461/5/6 435/5/6 462/5/6
f 436/5/6 437/5/6 463/5/6
f 462/4/6 436/4/6 463/4/6
f 437/4/6 438/4/6 464/4/6
f 463/5/6 437/5/6 464/5/6
f 438/5/6 439/5/6 465/5/6
f 464/4/6 438/4/6 465/4/6
f 439/4/6 440/4/6 466/4/6
f 465/5/6 439/5/6 466/5/6
f 440/5/6 441/5/6 467/5/6
f 466/4/6 440/4/6 467/4/6
f 441/4/6 442/4/6 468/4/6
f 467/5/6 441/5/6 468/5/6
f 442/5/6 443/5/6 469/5/6
f 468/4/6 442/4/6 469/4/6
f 443/4/6 444/4/6 470/4/6
f 469/5/6 443/5/6 470/5/6
f 444/5/6 445/5/6 471/5/6
f 470/4/6 444/4/6 471/4/6
f 445/4/6 446/4/6 472/4/6
f 471/5/6 445/5/6 472/5/6
f 446/5/6 447/5/6 473/5/6
f 472/4/6 446/4/6 473/4/6
f 447/4/6 448/4/6 474/4/6
f 473/5/6 447/5/6 474/5/6
f 448/5/6 449/5/6 475/5/6
f 474/4/6 448/4/6 475/4/6
f 475/5/6 449/5/6 476/5/6
f 477/1/6 478/1/6 481/1/6
f 481/1/6 478/1/6 482/1/6
f 479/1/6 480/1/6 483/1/6
f 483/1/6 480/1/6 484/1/6
f 477/1/6 481/1/6 485/1/6
f 481/3/6 482/3/6 485/3/6
f 482/1/6 478/1/6 486/1/6
f 485/3/6 482/3/6 486/3/6
f 483/3/6 484/3/6 487/3/6
f 479/1/6 483/1/6 487/1/6
f 484/1/6 480/1/6 488/1/6
f 487/3/6 484/3/6 488/3/6
f 477/1/6 485/1/6 489/1/6
f 485/1/6 486/1/6 489/1/6
f 486/1/6 478/1/6 490/1/6
f 489/1/6 486/1/6 490/1/6
f 479/1/6 487/1/6 491/1/6
f 487/1/6 488/1/6 491/1/6
f 488/1/6 480/1/6 492/1/6
f 491/1/6 488/1/6 492/1/6
